<?xml version="1.0" encoding="UTF-8" standalone="no"?>
<!DOCTYPE svg PUBLIC "-//W3C//DTD SVG 1.1//EN"
 "http://www.w3.org/Graphics/SVG/1.1/DTD/svg11.dtd">
<!-- Generated by graphviz version 2.43.0 (0)
 -->
<!-- Title: KnowledgeGraph Pages: 1 -->
<svg width="957pt" height="714pt"
 viewBox="0.00 0.00 957.00 714.00" xmlns="http://www.w3.org/2000/svg" xmlns:xlink="http://www.w3.org/1999/xlink">
<g id="graph0" class="graph" transform="scale(1 1) rotate(0) translate(4 710)">
<title>KnowledgeGraph</title>
<polygon fill="white" stroke="transparent" points="-4,4 -4,-710 953,-710 953,4 -4,4"/>
<text text-anchor="middle" x="474.5" y="-690.8" font-family="Arial Bold" font-size="14.00">MCP Knowledge Graph</text>
<text text-anchor="middle" x="474.5" y="-675.8" font-family="Arial Bold" font-size="14.00">TELOS Categories &amp; Relationships</text>
<g id="clust1" class="cluster">
<title>cluster_0</title>
<path fill="#000000" stroke="black" d="M108,-500.5C108,-500.5 182,-500.5 182,-500.5 188,-500.5 194,-506.5 194,-512.5 194,-512.5 194,-563.5 194,-563.5 194,-569.5 188,-575.5 182,-575.5 182,-575.5 108,-575.5 108,-575.5 102,-575.5 96,-569.5 96,-563.5 96,-563.5 96,-512.5 96,-512.5 96,-506.5 102,-500.5 108,-500.5"/>
<text text-anchor="middle" x="145" y="-560.3" font-family="Arial Bold" font-size="14.00" fill="red">Identity</text>
</g>
<g id="clust2" class="cluster">
<title>cluster_1</title>
<path fill="#000000" stroke="black" d="M290,-110C290,-110 554,-110 554,-110 560,-110 566,-116 566,-122 566,-122 566,-173 566,-173 566,-179 560,-185 554,-185 554,-185 290,-185 290,-185 284,-185 278,-179 278,-173 278,-173 278,-122 278,-122 278,-116 284,-110 290,-110"/>
<text text-anchor="middle" x="422" y="-169.8" font-family="Arial Bold" font-size="14.00" fill="teal">Projects</text>
</g>
<g id="clust3" class="cluster">
<title>cluster_2</title>
<path fill="#000000" stroke="black" d="M308,-212C308,-212 414,-212 414,-212 420,-212 426,-218 426,-224 426,-224 426,-275 426,-275 426,-281 420,-287 414,-287 414,-287 308,-287 308,-287 302,-287 296,-281 296,-275 296,-275 296,-224 296,-224 296,-218 302,-212 308,-212"/>
<text text-anchor="middle" x="361" y="-271.8" font-family="Arial Bold" font-size="14.00" fill="darkslategray">Habits</text>
</g>
<g id="clust4" class="cluster">
<title>cluster_3</title>
<path fill="#000000" stroke="black" d="M446,-212C446,-212 564,-212 564,-212 570,-212 576,-218 576,-224 576,-224 576,-275 576,-275 576,-281 570,-287 564,-287 564,-287 446,-287 446,-287 440,-287 434,-281 434,-275 434,-275 434,-224 434,-224 434,-218 440,-212 446,-212"/>
<text text-anchor="middle" x="505" y="-271.8" font-family="Arial Bold" font-size="14.00" fill="green">Resources</text>
</g>
<g id="clust5" class="cluster">
<title>cluster_4</title>
<path fill="#000000" stroke="black" d="M177,-8C177,-8 283,-8 283,-8 289,-8 295,-14 295,-20 295,-20 295,-71 295,-71 295,-77 289,-83 283,-83 283,-83 177,-83 177,-83 171,-83 165,-77 165,-71 165,-71 165,-20 165,-20 165,-14 171,-8 177,-8"/>
<text text-anchor="middle" x="230" y="-67.8" font-family="Arial Bold" font-size="14.00" fill="darkorange">Objectives</text>
</g>
<g id="clust6" class="cluster">
<title>cluster_5</title>
<path fill="#000000" stroke="black" d="M20,-212C20,-212 142,-212 142,-212 148,-212 154,-218 154,-224 154,-224 154,-275 154,-275 154,-281 148,-287 142,-287 142,-287 20,-287 20,-287 14,-287 8,-281 8,-275 8,-275 8,-224 8,-224 8,-218 14,-212 20,-212"/>
<text text-anchor="middle" x="81" y="-271.8" font-family="Arial Bold" font-size="14.00" fill="orange">Context</text>
</g>
<g id="clust7" class="cluster">
<title>cluster_6</title>
<path fill="#000000" stroke="black" d="M595,-314C595,-314 717,-314 717,-314 723,-314 729,-320 729,-326 729,-326 729,-377 729,-377 729,-383 723,-389 717,-389 717,-389 595,-389 595,-389 589,-389 583,-383 583,-377 583,-377 583,-326 583,-326 583,-320 589,-314 595,-314"/>
<text text-anchor="middle" x="656" y="-373.8" font-family="Arial Bold" font-size="14.00" fill="purple">Conventions</text>
</g>
<g id="clust8" class="cluster">
<title>cluster_7</title>
<path fill="#000000" stroke="black" d="M301,-500.5C301,-500.5 421,-500.5 421,-500.5 427,-500.5 433,-506.5 433,-512.5 433,-512.5 433,-563.5 433,-563.5 433,-569.5 427,-575.5 421,-575.5 421,-575.5 301,-575.5 301,-575.5 295,-575.5 289,-569.5 289,-563.5 289,-563.5 289,-512.5 289,-512.5 289,-506.5 295,-500.5 301,-500.5"/>
<text text-anchor="middle" x="361" y="-560.3" font-family="Arial Bold" font-size="14.00" fill="blue">Memory</text>
</g>
<g id="clust9" class="cluster">
<title>cluster_8</title>
<path fill="#000000" stroke="black" d="M174,-212C174,-212 276,-212 276,-212 282,-212 288,-218 288,-224 288,-224 288,-275 288,-275 288,-281 282,-287 276,-287 276,-287 174,-287 174,-287 168,-287 162,-281 162,-275 162,-275 162,-224 162,-224 162,-218 168,-212 174,-212"/>
<text text-anchor="middle" x="225" y="-271.8" font-family="Arial Bold" font-size="14.00" fill="darkred">Risks</text>
</g>
<g id="clust10" class="cluster">
<title>cluster_9</title>
<path fill="#000000" stroke="black" d="M298,-314C298,-314 424,-314 424,-314 430,-314 436,-320 436,-326 436,-326 436,-377 436,-377 436,-383 430,-389 424,-389 424,-389 298,-389 298,-389 292,-389 286,-383 286,-377 286,-377 286,-326 286,-326 286,-320 292,-314 298,-314"/>
<text text-anchor="middle" x="361" y="-373.8" font-family="Arial Bold" font-size="14.00" fill="indigo">DecisionJournal</text>
</g>
<g id="clust11" class="cluster">
<title>cluster_10</title>
<path fill="#000000" stroke="black" d="M803,-212C803,-212 929,-212 929,-212 935,-212 941,-218 941,-224 941,-224 941,-275 941,-275 941,-281 935,-287 929,-287 929,-287 803,-287 803,-287 797,-287 791,-281 791,-275 791,-275 791,-224 791,-224 791,-218 797,-212 803,-212"/>
<text text-anchor="middle" x="866" y="-271.8" font-family="Arial Bold" font-size="14.00" fill="darkcyan">Relationships</text>
</g>
<g id="clust12" class="cluster">
<title>cluster_11</title>
<path fill="#000000" stroke="black" d="M596,-212C596,-212 710,-212 710,-212 716,-212 722,-218 722,-224 722,-224 722,-275 722,-275 722,-281 716,-287 710,-287 710,-287 596,-287 596,-287 590,-287 584,-281 584,-275 584,-275 584,-224 584,-224 584,-218 590,-212 596,-212"/>
<text text-anchor="middle" x="653" y="-271.8" font-family="Arial Bold" font-size="14.00" fill="darkgreen">Retros</text>
</g>
<g id="clust13" class="cluster">
<title>cluster_legend</title>
<path fill="lightyellow" stroke="black" d="M584,-416C584,-416 798,-416 798,-416 804,-416 810,-422 810,-428 810,-428 810,-648 810,-648 810,-654 804,-660 798,-660 798,-660 584,-660 584,-660 578,-660 572,-654 572,-648 572,-648 572,-428 572,-428 572,-422 578,-416 584,-416"/>
<text text-anchor="middle" x="691" y="-644.8" font-family="Arial Bold" font-size="14.00">Legend</text>
</g>
<!-- default_user -->
<g id="node1" class="node">
<title>default_user</title>
<g id="a_node1"><a xlink:title="default_user&#10;Type: Identity&#10;Category: Identity">
<ellipse fill="red" stroke="black" cx="145" cy="-526.5" rx="41.41" ry="18"/>
<text text-anchor="middle" x="145" y="-524" font-family="Arial" font-size="10.00" fill="white">default_user</text>
</a>
</g>
</g>
<!-- knowledge_graph_implementation -->
<g id="node2" class="node">
<title>knowledge_graph_implementation</title>
<g id="a_node2"><a xlink:title="knowledge_graph_implementation&#10;Type: Projects&#10;Category: Projects">
<ellipse fill="teal" stroke="black" cx="494" cy="-136" rx="64.33" ry="18"/>
<text text-anchor="middle" x="494" y="-133.5" font-family="Arial" font-size="10.00" fill="white">knowledge_graph_i...</text>
</a>
</g>
</g>
<!-- productivity_optimization_goal -->
<g id="node6" class="node">
<title>productivity_optimization_goal</title>
<g id="a_node6"><a xlink:title="productivity_optimization_goal&#10;Type: Objectives&#10;Category: Objectives">
<ellipse fill="darkorange" stroke="black" cx="230" cy="-34" rx="57.2" ry="18"/>
<text text-anchor="middle" x="230" y="-31.5" font-family="Arial" font-size="10.00" fill="white">productivity_opti...</text>
</a>
</g>
</g>
<!-- knowledge_graph_implementation&#45;&gt;productivity_optimization_goal -->
<g id="edge2" class="edge">
<title>knowledge_graph_implementation&#45;&gt;productivity_optimization_goal</title>
<g id="a_edge2"><a xlink:title="knowledge_graph_implementation supports productivity_optimization_goal">
<path fill="none" stroke="green" d="M457.29,-121.1C409.51,-103 326.05,-71.38 274.65,-51.91"/>
<polygon fill="green" stroke="green" points="275.73,-48.58 265.13,-48.31 273.25,-55.12 275.73,-48.58"/>
</a>
</g>
<text text-anchor="middle" x="416.5" y="-93.6" font-family="Arial" font-size="8.00">supports</text>
</g>
<!-- Ubuntu_MATE_Setup -->
<g id="node3" class="node">
<title>Ubuntu_MATE_Setup</title>
<g id="a_node3"><a xlink:title="Ubuntu MATE Setup&#10;Type: Project&#10;Category: Projects">
<ellipse fill="teal" stroke="black" cx="349" cy="-136" rx="62.97" ry="18"/>
<text text-anchor="middle" x="349" y="-133.5" font-family="Arial" font-size="10.00" fill="white">Ubuntu MATE Setup</text>
</a>
</g>
</g>
<!-- daily_reflection_habit -->
<g id="node4" class="node">
<title>daily_reflection_habit</title>
<g id="a_node4"><a xlink:title="daily_reflection_habit&#10;Type: Habits&#10;Category: Habits">
<ellipse fill="darkslategray" stroke="black" cx="361" cy="-238" rx="56.52" ry="18"/>
<text text-anchor="middle" x="361" y="-235.5" font-family="Arial" font-size="10.00" fill="white">daily_reflection_...</text>
</a>
</g>
</g>
<!-- daily_reflection_habit&#45;&gt;knowledge_graph_implementation -->
<g id="edge1" class="edge">
<title>daily_reflection_habit&#45;&gt;knowledge_graph_implementation</title>
<g id="a_edge1"><a xlink:title="daily_reflection_habit supports knowledge_graph_implementation">
<path fill="none" stroke="green" d="M382.07,-221.15C404.32,-204.43 439.55,-177.94 464.54,-159.15"/>
<polygon fill="green" stroke="green" points="466.69,-161.91 472.58,-153.1 462.49,-156.31 466.69,-161.91"/>
</a>
</g>
<text text-anchor="middle" x="430.5" y="-195.6" font-family="Arial" font-size="8.00">supports</text>
</g>
<!-- claude_mcp_integration -->
<g id="node5" class="node">
<title>claude_mcp_integration</title>
<g id="a_node5"><a xlink:title="claude_mcp_integration&#10;Type: Resources&#10;Category: Resources">
<ellipse fill="green" stroke="black" cx="505" cy="-238" rx="62.97" ry="18"/>
<text text-anchor="middle" x="505" y="-235.5" font-family="Arial" font-size="10.00" fill="white">claude_mcp_integr...</text>
</a>
</g>
</g>
<!-- claude_mcp_integration&#45;&gt;knowledge_graph_implementation -->
<g id="edge4" class="edge">
<title>claude_mcp_integration&#45;&gt;knowledge_graph_implementation</title>
<g id="a_edge4"><a xlink:title="claude_mcp_integration enables knowledge_graph_implementation">
<path fill="none" stroke="blue" d="M503.08,-219.58C501.41,-204.38 498.96,-182.07 497.02,-164.46"/>
<polygon fill="blue" stroke="blue" points="500.47,-163.78 495.89,-154.22 493.51,-164.54 500.47,-163.78"/>
</a>
</g>
<text text-anchor="middle" x="515" y="-195.6" font-family="Arial" font-size="8.00">enables</text>
</g>
<!-- remote_work_context -->
<g id="node7" class="node">
<title>remote_work_context</title>
<g id="a_node7"><a xlink:title="remote_work_context&#10;Type: Context&#10;Category: Context">
<ellipse fill="orange" stroke="black" cx="81" cy="-238" rx="64.51" ry="18"/>
<text text-anchor="middle" x="81" y="-235.5" font-family="Arial" font-size="10.00" fill="white">remote_work_context</text>
</a>
</g>
</g>
<!-- remote_work_context&#45;&gt;knowledge_graph_implementation -->
<g id="edge6" class="edge">
<title>remote_work_context&#45;&gt;knowledge_graph_implementation</title>
<g id="a_edge6"><a xlink:title="remote_work_context constrains knowledge_graph_implementation">
<path fill="none" stroke="red" stroke-dasharray="5,2" d="M119.03,-223.27C131.34,-219.19 145.14,-215.02 158,-212 213.99,-198.85 228.79,-198.93 286,-193 315.89,-189.9 392.48,-194.47 421,-185 437.65,-179.47 454.16,-169.14 467.25,-159.48"/>
<polygon fill="red" stroke="red" points="469.53,-162.14 475.33,-153.28 465.27,-156.59 469.53,-162.14"/>
</a>
</g>
<text text-anchor="middle" x="304.5" y="-195.6" font-family="Arial" font-size="8.00">constrains</text>
</g>
<!-- remote_work_context&#45;&gt;productivity_optimization_goal -->
<g id="edge5" class="edge">
<title>remote_work_context&#45;&gt;productivity_optimization_goal</title>
<g id="a_edge5"><a xlink:title="remote_work_context enables productivity_optimization_goal">
<path fill="none" stroke="blue" d="M78.23,-219.73C75,-193.63 72.65,-143.62 95,-110 114.47,-80.71 149.43,-61.75 178.9,-50.22"/>
<polygon fill="blue" stroke="blue" points="180.5,-53.36 188.65,-46.59 178.06,-46.79 180.5,-53.36"/>
</a>
</g>
<text text-anchor="middle" x="109" y="-134.1" font-family="Arial" font-size="8.00">enables</text>
</g>
<!-- remote_work_context&#45;&gt;productivity_optimization_goal -->
<g id="edge11" class="edge">
<title>remote_work_context&#45;&gt;productivity_optimization_goal</title>
<g id="a_edge11"><a xlink:title="remote_work_context informs productivity_optimization_goal">
<path fill="none" stroke="orange" stroke-dasharray="1,5" d="M94.88,-220.34C103.19,-210.24 113.88,-197.01 123,-185 155.75,-141.87 191.98,-90.19 212.76,-60.13"/>
<polygon fill="orange" stroke="orange" points="215.65,-62.1 218.45,-51.88 209.89,-58.13 215.65,-62.1"/>
</a>
</g>
<text text-anchor="middle" x="190.5" y="-134.1" font-family="Arial" font-size="8.00">informs</text>
</g>
<!-- tdd_development_convention -->
<g id="node8" class="node">
<title>tdd_development_convention</title>
<g id="a_node8"><a xlink:title="tdd_development_convention&#10;Type: Conventions&#10;Category: Conventions">
<ellipse fill="purple" stroke="black" cx="656" cy="-340" rx="64.51" ry="18"/>
<text text-anchor="middle" x="656" y="-337.5" font-family="Arial" font-size="10.00" fill="white">tdd_development_c...</text>
</a>
</g>
</g>
<!-- tdd_development_convention&#45;&gt;knowledge_graph_implementation -->
<g id="edge3" class="edge">
<title>tdd_development_convention&#45;&gt;knowledge_graph_implementation</title>
<g id="a_edge3"><a xlink:title="tdd_development_convention supports knowledge_graph_implementation">
<path fill="none" stroke="green" d="M687.73,-324.09C702.21,-315.46 717.91,-303.1 726,-287 740.98,-257.22 745.61,-238.95 726,-212 690.2,-162.8 621.46,-145.21 568.06,-139.24"/>
<polygon fill="green" stroke="green" points="568.24,-135.74 557.94,-138.22 567.54,-142.7 568.24,-135.74"/>
</a>
</g>
<text text-anchor="middle" x="754.5" y="-236.1" font-family="Arial" font-size="8.00">supports</text>
</g>
<!-- tdd_development_convention&#45;&gt;daily_reflection_habit -->
<g id="edge7" class="edge">
<title>tdd_development_convention&#45;&gt;daily_reflection_habit</title>
<g id="a_edge7"><a xlink:title="tdd_development_convention constrains daily_reflection_habit">
<path fill="none" stroke="red" stroke-dasharray="5,2" d="M597.88,-331.86C551.05,-324.65 484.3,-311.05 430,-287 415.04,-280.37 399.95,-270.34 387.71,-261.16"/>
<polygon fill="red" stroke="red" points="389.78,-258.34 379.73,-254.99 385.5,-263.88 389.78,-258.34"/>
</a>
</g>
<text text-anchor="middle" x="489.5" y="-297.6" font-family="Arial" font-size="8.00">constrains</text>
</g>
<!-- ai_knowledge_systems_learning -->
<g id="node9" class="node">
<title>ai_knowledge_systems_learning</title>
<g id="a_node9"><a xlink:title="ai_knowledge_systems_learning&#10;Type: Memory&#10;Category: Memory">
<ellipse fill="blue" stroke="black" cx="361" cy="-526.5" rx="64.33" ry="18"/>
<text text-anchor="middle" x="361" y="-524" font-family="Arial" font-size="10.00" fill="white">ai_knowledge_syst...</text>
</a>
</g>
</g>
<!-- taxonomy_design_decision -->
<g id="node11" class="node">
<title>taxonomy_design_decision</title>
<g id="a_node11"><a xlink:title="taxonomy_design_decision&#10;Type: DecisionJournal&#10;Category: DecisionJournal">
<ellipse fill="indigo" stroke="black" cx="361" cy="-340" rx="66.54" ry="18"/>
<text text-anchor="middle" x="361" y="-337.5" font-family="Arial" font-size="10.00" fill="white">taxonomy_design_d...</text>
</a>
</g>
</g>
<!-- ai_knowledge_systems_learning&#45;&gt;taxonomy_design_decision -->
<g id="edge10" class="edge">
<title>ai_knowledge_systems_learning&#45;&gt;taxonomy_design_decision</title>
<g id="a_edge10"><a xlink:title="ai_knowledge_systems_learning informs taxonomy_design_decision">
<path fill="none" stroke="orange" stroke-dasharray="1,5" d="M361,-508.47C361,-476.43 361,-406.91 361,-368.27"/>
<polygon fill="orange" stroke="orange" points="364.5,-368.25 361,-358.25 357.5,-368.25 364.5,-368.25"/>
</a>
</g>
<text text-anchor="middle" x="374.5" y="-399.6" font-family="Arial" font-size="8.00">informs</text>
</g>
<!-- scope_creep_risk -->
<g id="node10" class="node">
<title>scope_creep_risk</title>
<g id="a_node10"><a xlink:title="scope_creep_risk&#10;Type: Risks&#10;Category: Risks">
<ellipse fill="darkred" stroke="black" cx="225" cy="-238" rx="54.99" ry="18"/>
<text text-anchor="middle" x="225" y="-235.5" font-family="Arial" font-size="10.00" fill="white">scope_creep_risk</text>
</a>
</g>
</g>
<!-- scope_creep_risk&#45;&gt;knowledge_graph_implementation -->
<g id="edge14" class="edge">
<title>scope_creep_risk&#45;&gt;knowledge_graph_implementation</title>
<g id="a_edge14"><a xlink:title="scope_creep_risk threatens knowledge_graph_implementation">
<path fill="none" stroke="darkred" stroke-width="2" d="M258.48,-223.64C269.11,-219.64 280.97,-215.41 292,-212 325.68,-201.6 334.44,-199.91 369,-193 391.93,-188.42 399.18,-193.39 421,-185 438.83,-178.14 456.79,-166.41 470.43,-156.26"/>
<polygon fill="darkred" stroke="darkred" stroke-width="2" points="470.71,-149.79 476.74,-157.76 475.15,-158.97 469.12,-150.99 470.71,-149.79"/>
<polyline fill="none" stroke="darkred" stroke-width="2" points="474.52,-153.17 470.54,-156.19 "/>
</a>
</g>
<text text-anchor="middle" x="386" y="-195.6" font-family="Arial" font-size="8.00">threatens</text>
</g>
<!-- scope_creep_risk&#45;&gt;productivity_optimization_goal -->
<g id="edge15" class="edge">
<title>scope_creep_risk&#45;&gt;productivity_optimization_goal</title>
<g id="a_edge15"><a xlink:title="scope_creep_risk threatens productivity_optimization_goal">
<path fill="none" stroke="darkred" stroke-width="2" d="M225.43,-219.78C226.33,-183.25 228.44,-98.05 229.45,-57.38"/>
<polygon fill="darkred" stroke="darkred" stroke-width="2" points="224.55,-53.05 234.55,-53.3 234.5,-55.3 224.5,-55.05 224.55,-53.05"/>
<polyline fill="none" stroke="darkred" stroke-width="2" points="229.57,-52.18 229.45,-57.18 "/>
</a>
</g>
<text text-anchor="middle" x="245" y="-134.1" font-family="Arial" font-size="8.00">threatens</text>
</g>
<!-- taxonomy_design_decision&#45;&gt;daily_reflection_habit -->
<g id="edge13" class="edge">
<title>taxonomy_design_decision&#45;&gt;daily_reflection_habit</title>
<g id="a_edge13"><a xlink:title="taxonomy_design_decision reflects_on daily_reflection_habit">
<path fill="none" stroke="teal" d="M361,-321.58C361,-306.38 361,-284.07 361,-266.46"/>
<polygon fill="teal" stroke="teal" points="361,-256.22 365.5,-266.22 361,-261.22 361,-266.22 361,-266.22 361,-266.22 361,-261.22 356.5,-266.22 361,-256.22 361,-256.22"/>
</a>
</g>
<text text-anchor="middle" x="381" y="-297.6" font-family="Arial" font-size="8.00">reflects_on</text>
</g>
<!-- development_team_relationship -->
<g id="node12" class="node">
<title>development_team_relationship</title>
<g id="a_node12"><a xlink:title="development_team_relationship&#10;Type: Relationships&#10;Category: Relationships">
<ellipse fill="darkcyan" stroke="black" cx="866" cy="-238" rx="66.54" ry="18"/>
<text text-anchor="middle" x="866" y="-235.5" font-family="Arial" font-size="10.00" fill="white">development_team_...</text>
</a>
</g>
</g>
<!-- development_team_relationship&#45;&gt;knowledge_graph_implementation -->
<g id="edge8" class="edge">
<title>development_team_relationship&#45;&gt;knowledge_graph_implementation</title>
<g id="a_edge8"><a xlink:title="development_team_relationship mentors knowledge_graph_implementation">
<path fill="none" stroke="purple" d="M835.37,-221.85C815.43,-212.47 788.64,-200.78 764,-193 696.41,-171.66 616.7,-156.27 561.48,-147.09"/>
<polygon fill="purple" stroke="purple" points="561.24,-147.05 554.67,-150.03 549.39,-145.11 555.96,-142.13 561.24,-147.05"/>
</a>
</g>
<text text-anchor="middle" x="801" y="-195.6" font-family="Arial" font-size="8.00">mentors</text>
</g>
<!-- development_team_relationship&#45;&gt;productivity_optimization_goal -->
<g id="edge9" class="edge">
<title>development_team_relationship&#45;&gt;productivity_optimization_goal</title>
<g id="a_edge9"><a xlink:title="development_team_relationship mentors productivity_optimization_goal">
<path fill="none" stroke="purple" d="M851.69,-220.04C843.26,-210.95 831.93,-200.18 820,-193 649.29,-90.24 411.32,-53.21 296.79,-40.78"/>
<polygon fill="purple" stroke="purple" points="296.71,-40.77 290.33,-44.12 284.78,-39.52 291.16,-36.16 296.71,-40.77"/>
</a>
</g>
<text text-anchor="middle" x="819" y="-134.1" font-family="Arial" font-size="8.00">mentors</text>
</g>
<!-- weekly_project_retrospective -->
<g id="node13" class="node">
<title>weekly_project_retrospective</title>
<g id="a_node13"><a xlink:title="weekly_project_retrospective&#10;Type: Retros&#10;Category: Retros">
<ellipse fill="darkgreen" stroke="black" cx="653" cy="-238" rx="61.44" ry="18"/>
<text text-anchor="middle" x="653" y="-235.5" font-family="Arial" font-size="10.00" fill="white">weekly_project_re...</text>
</a>
</g>
</g>
<!-- weekly_project_retrospective&#45;&gt;knowledge_graph_implementation -->
<g id="edge12" class="edge">
<title>weekly_project_retrospective&#45;&gt;knowledge_graph_implementation</title>
<g id="a_edge12"><a xlink:title="weekly_project_retrospective reflects_on knowledge_graph_implementation">
<path fill="none" stroke="teal" d="M628.16,-221.38C601.05,-204.33 557.51,-176.94 527.42,-158.02"/>
<polygon fill="teal" stroke="teal" points="518.93,-152.68 529.79,-154.19 523.16,-155.34 527.4,-158 527.4,-158 527.4,-158 523.16,-155.34 525,-161.81 518.93,-152.68 518.93,-152.68"/>
</a>
</g>
<text text-anchor="middle" x="617" y="-195.6" font-family="Arial" font-size="8.00">reflects_on</text>
</g>
<!-- legend_categories -->
<g id="node14" class="node">
<title>legend_categories</title>
<polygon fill="lightgrey" stroke="transparent" points="801.5,-629 692.5,-629 692.5,-424 801.5,-424 801.5,-629"/>
<polygon fill="white" stroke="transparent" points="700.5,-428 700.5,-625 793.5,-625 793.5,-428 700.5,-428"/>
<text text-anchor="start" x="704" y="-614.5" font-family="Arial" font-weight="bold" font-size="10.00">TELOS Categories</text>
<polygon fill="red" stroke="transparent" points="702,-593.5 702,-608.5 717,-608.5 717,-593.5 702,-593.5"/>
<text text-anchor="start" x="704.5" y="-598.5" font-family="Arial" font-size="10.00"> &#160;&#160;</text>
<text text-anchor="start" x="719" y="-598.5" font-family="Arial" font-size="10.00">Identity</text>
<polygon fill="teal" stroke="transparent" points="702,-578.5 702,-593.5 717,-593.5 717,-578.5 702,-578.5"/>
<text text-anchor="start" x="704.5" y="-583.5" font-family="Arial" font-size="10.00"> &#160;&#160;</text>
<text text-anchor="start" x="719" y="-583.5" font-family="Arial" font-size="10.00">Projects</text>
<polygon fill="darkslategray" stroke="transparent" points="702,-563.5 702,-578.5 717,-578.5 717,-563.5 702,-563.5"/>
<text text-anchor="start" x="704.5" y="-568.5" font-family="Arial" font-size="10.00"> &#160;&#160;</text>
<text text-anchor="start" x="719" y="-568.5" font-family="Arial" font-size="10.00">Habits</text>
<polygon fill="green" stroke="transparent" points="702,-548.5 702,-563.5 717,-563.5 717,-548.5 702,-548.5"/>
<text text-anchor="start" x="704.5" y="-553.5" font-family="Arial" font-size="10.00"> &#160;&#160;</text>
<text text-anchor="start" x="719" y="-553.5" font-family="Arial" font-size="10.00">Resources</text>
<polygon fill="darkorange" stroke="transparent" points="702,-533.5 702,-548.5 717,-548.5 717,-533.5 702,-533.5"/>
<text text-anchor="start" x="704.5" y="-538.5" font-family="Arial" font-size="10.00"> &#160;&#160;</text>
<text text-anchor="start" x="719" y="-538.5" font-family="Arial" font-size="10.00">Objectives</text>
<polygon fill="orange" stroke="transparent" points="702,-518.5 702,-533.5 717,-533.5 717,-518.5 702,-518.5"/>
<text text-anchor="start" x="704.5" y="-523.5" font-family="Arial" font-size="10.00"> &#160;&#160;</text>
<text text-anchor="start" x="719" y="-523.5" font-family="Arial" font-size="10.00">Context</text>
<polygon fill="purple" stroke="transparent" points="702,-503.5 702,-518.5 717,-518.5 717,-503.5 702,-503.5"/>
<text text-anchor="start" x="704.5" y="-508.5" font-family="Arial" font-size="10.00"> &#160;&#160;</text>
<text text-anchor="start" x="719" y="-508.5" font-family="Arial" font-size="10.00">Conventions</text>
<polygon fill="blue" stroke="transparent" points="702,-488.5 702,-503.5 717,-503.5 717,-488.5 702,-488.5"/>
<text text-anchor="start" x="704.5" y="-493.5" font-family="Arial" font-size="10.00"> &#160;&#160;</text>
<text text-anchor="start" x="719" y="-493.5" font-family="Arial" font-size="10.00">Memory</text>
<polygon fill="darkred" stroke="transparent" points="702,-473.5 702,-488.5 717,-488.5 717,-473.5 702,-473.5"/>
<text text-anchor="start" x="704.5" y="-478.5" font-family="Arial" font-size="10.00"> &#160;&#160;</text>
<text text-anchor="start" x="719" y="-478.5" font-family="Arial" font-size="10.00">Risks</text>
<polygon fill="indigo" stroke="transparent" points="702,-458.5 702,-473.5 717,-473.5 717,-458.5 702,-458.5"/>
<text text-anchor="start" x="704.5" y="-463.5" font-family="Arial" font-size="10.00"> &#160;&#160;</text>
<text text-anchor="start" x="719" y="-463.5" font-family="Arial" font-size="10.00">DecisionJournal</text>
<polygon fill="darkcyan" stroke="transparent" points="702,-443.5 702,-458.5 717,-458.5 717,-443.5 702,-443.5"/>
<text text-anchor="start" x="704.5" y="-448.5" font-family="Arial" font-size="10.00"> &#160;&#160;</text>
<text text-anchor="start" x="719" y="-448.5" font-family="Arial" font-size="10.00">Relationships</text>
<polygon fill="darkgreen" stroke="transparent" points="702,-428.5 702,-443.5 717,-443.5 717,-428.5 702,-428.5"/>
<text text-anchor="start" x="704.5" y="-433.5" font-family="Arial" font-size="10.00"> &#160;&#160;</text>
<text text-anchor="start" x="719" y="-433.5" font-family="Arial" font-size="10.00">Retros</text>
<polygon fill="none" stroke="black" points="700.5,-428 700.5,-625 793.5,-625 793.5,-428 700.5,-428"/>
</g>
<!-- legend_relations -->
<g id="node15" class="node">
<title>legend_relations</title>
<polygon fill="lightgrey" stroke="transparent" points="674,-591.5 580,-591.5 580,-461.5 674,-461.5 674,-591.5"/>
<polygon fill="white" stroke="transparent" points="588,-465.5 588,-587.5 666,-587.5 666,-465.5 588,-465.5"/>
<text text-anchor="start" x="594.5" y="-577.5" font-family="Arial" font-weight="bold" font-size="10.00">Relationships</text>
<text text-anchor="start" x="591" y="-561.5" font-family="Arial" font-size="10.00" fill="green">━━━</text>
<text text-anchor="start" x="614" y="-561.5" font-family="Arial" font-size="10.00">supports</text>
<text text-anchor="start" x="591" y="-546.5" font-family="Arial" font-size="10.00" fill="blue">━━━</text>
<text text-anchor="start" x="614" y="-546.5" font-family="Arial" font-size="10.00">enables</text>
<text text-anchor="start" x="591" y="-531.5" font-family="Arial" font-size="10.00" fill="red">━━━</text>
<text text-anchor="start" x="614" y="-531.5" font-family="Arial" font-size="10.00">constrains</text>
<text text-anchor="start" x="591" y="-516.5" font-family="Arial" font-size="10.00" fill="purple">━━━</text>
<text text-anchor="start" x="614" y="-516.5" font-family="Arial" font-size="10.00">mentors</text>
<text text-anchor="start" x="591" y="-501.5" font-family="Arial" font-size="10.00" fill="orange">━━━</text>
<text text-anchor="start" x="614" y="-501.5" font-family="Arial" font-size="10.00">informs</text>
<text text-anchor="start" x="591" y="-486.5" font-family="Arial" font-size="10.00" fill="teal">━━━</text>
<text text-anchor="start" x="614" y="-486.5" font-family="Arial" font-size="10.00">reflects_on</text>
<text text-anchor="start" x="591" y="-471.5" font-family="Arial" font-size="10.00" fill="darkred">━━━</text>
<text text-anchor="start" x="614" y="-471.5" font-family="Arial" font-size="10.00">threatens</text>
<polygon fill="none" stroke="black" points="588,-465.5 588,-587.5 666,-587.5 666,-465.5 588,-465.5"/>
</g>
</g>
</svg>
