<?xml version="1.0" encoding="UTF-8" standalone="no"?>
<!DOCTYPE svg PUBLIC "-//W3C//DTD SVG 1.1//EN"
 "http://www.w3.org/Graphics/SVG/1.1/DTD/svg11.dtd">
<!-- Generated by graphviz version 2.43.0 (0)
 -->
<!-- Title: KnowledgeGraph Pages: 1 -->
<svg width="1404pt" height="640pt"
 viewBox="0.00 0.00 1404.36 640.41" xmlns="http://www.w3.org/2000/svg" xmlns:xlink="http://www.w3.org/1999/xlink">
<g id="graph0" class="graph" transform="scale(1 1) rotate(0) translate(4 636.41)">
<title>KnowledgeGraph</title>
<polygon fill="white" stroke="transparent" points="-4,4 -4,-636.41 1400.36,-636.41 1400.36,4 -4,4"/>
<text text-anchor="middle" x="698.18" y="-617.21" font-family="Arial Bold" font-size="14.00">MCP Knowledge Graph</text>
<text text-anchor="middle" x="698.18" y="-602.21" font-family="Arial Bold" font-size="14.00">TELOS Categories &amp; Relationships</text>
<!-- default_user -->
<g id="node1" class="node">
<title>default_user</title>
<g id="a_node1"><a xlink:title="default_user&#10;Type: Identity&#10;Category: Identity">
<ellipse fill="red" stroke="black" cx="941.21" cy="-153" rx="41.41" ry="18"/>
<text text-anchor="middle" x="941.21" y="-150.5" font-family="Arial" font-size="10.00" fill="white">default_user</text>
</a>
</g>
</g>
<!-- knowledge_graph_implementation -->
<g id="node2" class="node">
<title>knowledge_graph_implementation</title>
<g id="a_node2"><a xlink:title="knowledge_graph_implementation&#10;Type: Projects&#10;Category: Projects">
<ellipse fill="teal" stroke="black" cx="334.01" cy="-288.74" rx="64.33" ry="18"/>
<text text-anchor="middle" x="334.01" y="-286.24" font-family="Arial" font-size="10.00" fill="white">knowledge_graph_i...</text>
</a>
</g>
</g>
<!-- productivity_optimization_goal -->
<g id="node6" class="node">
<title>productivity_optimization_goal</title>
<g id="a_node6"><a xlink:title="productivity_optimization_goal&#10;Type: Objectives&#10;Category: Objectives">
<ellipse fill="darkorange" stroke="black" cx="194.62" cy="-118.34" rx="57.2" ry="18"/>
<text text-anchor="middle" x="194.62" y="-115.84" font-family="Arial" font-size="10.00" fill="white">productivity_opti...</text>
</a>
</g>
</g>
<!-- knowledge_graph_implementation&#45;&gt;productivity_optimization_goal -->
<g id="edge2" class="edge">
<title>knowledge_graph_implementation&#45;&gt;productivity_optimization_goal</title>
<g id="a_edge2"><a xlink:title="knowledge_graph_implementation supports productivity_optimization_goal">
<path fill="none" stroke="green" d="M319.62,-271.14C294.83,-240.84 243.98,-178.67 215.36,-143.69"/>
<polygon fill="green" stroke="green" points="217.97,-141.36 208.93,-135.84 212.56,-145.79 217.97,-141.36"/>
</a>
</g>
<text text-anchor="middle" x="248.87" y="-206.21" font-family="Arial" font-size="8.00">supports</text>
</g>
<!-- Ubuntu_MATE_Setup -->
<g id="node3" class="node">
<title>Ubuntu_MATE_Setup</title>
<g id="a_node3"><a xlink:title="Ubuntu MATE Setup&#10;Type: Project&#10;Category: Projects">
<ellipse fill="teal" stroke="black" cx="782.99" cy="-198" rx="62.97" ry="18"/>
<text text-anchor="middle" x="782.99" y="-195.5" font-family="Arial" font-size="10.00" fill="white">Ubuntu MATE Setup</text>
</a>
</g>
</g>
<!-- daily_reflection_habit -->
<g id="node4" class="node">
<title>daily_reflection_habit</title>
<g id="a_node4"><a xlink:title="daily_reflection_habit&#10;Type: Habits&#10;Category: Habits">
<ellipse fill="darkslategray" stroke="black" cx="731.62" cy="-272.39" rx="56.52" ry="18"/>
<text text-anchor="middle" x="731.62" y="-269.89" font-family="Arial" font-size="10.00" fill="white">daily_reflection_...</text>
</a>
</g>
</g>
<!-- daily_reflection_habit&#45;&gt;knowledge_graph_implementation -->
<g id="edge1" class="edge">
<title>daily_reflection_habit&#45;&gt;knowledge_graph_implementation</title>
<g id="a_edge1"><a xlink:title="daily_reflection_habit supports knowledge_graph_implementation">
<path fill="none" stroke="green" d="M675.5,-274.7C605.43,-277.58 485.4,-282.51 407.91,-285.7"/>
<polygon fill="green" stroke="green" points="407.59,-282.21 397.74,-286.12 407.88,-289.2 407.59,-282.21"/>
</a>
</g>
<text text-anchor="middle" x="521.03" y="-283.01" font-family="Arial" font-size="8.00">supports</text>
</g>
<!-- claude_mcp_integration -->
<g id="node5" class="node">
<title>claude_mcp_integration</title>
<g id="a_node5"><a xlink:title="claude_mcp_integration&#10;Type: Resources&#10;Category: Resources">
<ellipse fill="green" stroke="black" cx="145.68" cy="-529.31" rx="62.97" ry="18"/>
<text text-anchor="middle" x="145.68" y="-526.81" font-family="Arial" font-size="10.00" fill="white">claude_mcp_integr...</text>
</a>
</g>
</g>
<!-- claude_mcp_integration&#45;&gt;knowledge_graph_implementation -->
<g id="edge4" class="edge">
<title>claude_mcp_integration&#45;&gt;knowledge_graph_implementation</title>
<g id="a_edge4"><a xlink:title="claude_mcp_integration enables knowledge_graph_implementation">
<path fill="none" stroke="blue" d="M159.53,-511.62C192.45,-469.57 275.52,-363.46 313.94,-314.38"/>
<polygon fill="blue" stroke="blue" points="316.74,-316.49 320.14,-306.45 311.22,-312.17 316.74,-316.49"/>
</a>
</g>
<text text-anchor="middle" x="225.89" y="-411.56" font-family="Arial" font-size="8.00">enables</text>
</g>
<!-- remote_work_context -->
<g id="node7" class="node">
<title>remote_work_context</title>
<g id="a_node7"><a xlink:title="remote_work_context&#10;Type: Context&#10;Category: Context">
<ellipse fill="orange" stroke="black" cx="64.75" cy="-97.63" rx="64.51" ry="18"/>
<text text-anchor="middle" x="64.75" y="-95.13" font-family="Arial" font-size="10.00" fill="white">remote_work_context</text>
</a>
</g>
</g>
<!-- remote_work_context&#45;&gt;knowledge_graph_implementation -->
<g id="edge6" class="edge">
<title>remote_work_context&#45;&gt;knowledge_graph_implementation</title>
<g id="a_edge6"><a xlink:title="remote_work_context constrains knowledge_graph_implementation">
<path fill="none" stroke="red" stroke-dasharray="5,2" d="M88.65,-114.59C137.15,-149.01 247.17,-227.1 301.88,-265.93"/>
<polygon fill="red" stroke="red" points="299.99,-268.88 310.17,-271.82 304.04,-263.17 299.99,-268.88"/>
</a>
</g>
<text text-anchor="middle" x="181.07" y="-195.92" font-family="Arial" font-size="8.00">constrains</text>
</g>
<!-- remote_work_context&#45;&gt;productivity_optimization_goal -->
<g id="edge5" class="edge">
<title>remote_work_context&#45;&gt;productivity_optimization_goal</title>
<g id="a_edge5"><a xlink:title="remote_work_context enables productivity_optimization_goal">
<path fill="none" stroke="blue" d="M108.07,-111.06C114.31,-112.25 120.84,-113.4 127.41,-114.45"/>
<polygon fill="blue" stroke="blue" points="127.31,-117.98 137.72,-116.04 128.37,-111.06 127.31,-117.98"/>
</a>
</g>
<text text-anchor="middle" x="109.11" y="-116.35" font-family="Arial" font-size="8.00">enables</text>
</g>
<!-- remote_work_context&#45;&gt;productivity_optimization_goal -->
<g id="edge11" class="edge">
<title>remote_work_context&#45;&gt;productivity_optimization_goal</title>
<g id="a_edge11"><a xlink:title="remote_work_context informs productivity_optimization_goal">
<path fill="none" stroke="orange" stroke-dasharray="1,5" d="M128.47,-100.96C133.84,-101.8 139.23,-102.7 144.49,-103.65"/>
<polygon fill="orange" stroke="orange" points="143.91,-107.1 154.38,-105.51 145.2,-100.22 143.91,-107.1"/>
</a>
</g>
<text text-anchor="middle" x="148.27" y="-96.72" font-family="Arial" font-size="8.00">informs</text>
</g>
<!-- tdd_development_convention -->
<g id="node8" class="node">
<title>tdd_development_convention</title>
<g id="a_node8"><a xlink:title="tdd_development_convention&#10;Type: Conventions&#10;Category: Conventions">
<ellipse fill="purple" stroke="black" cx="575.31" cy="-337.89" rx="64.51" ry="18"/>
<text text-anchor="middle" x="575.31" y="-335.39" font-family="Arial" font-size="10.00" fill="white">tdd_development_c...</text>
</a>
</g>
</g>
<!-- tdd_development_convention&#45;&gt;knowledge_graph_implementation -->
<g id="edge3" class="edge">
<title>tdd_development_convention&#45;&gt;knowledge_graph_implementation</title>
<g id="a_edge3"><a xlink:title="tdd_development_convention supports knowledge_graph_implementation">
<path fill="none" stroke="green" d="M522.95,-327.23C485.72,-319.64 435.55,-309.42 396.26,-301.42"/>
<polygon fill="green" stroke="green" points="396.76,-297.95 386.27,-299.38 395.37,-304.81 396.76,-297.95"/>
</a>
</g>
<text text-anchor="middle" x="439.17" y="-315.92" font-family="Arial" font-size="8.00">supports</text>
</g>
<!-- tdd_development_convention&#45;&gt;daily_reflection_habit -->
<g id="edge7" class="edge">
<title>tdd_development_convention&#45;&gt;daily_reflection_habit</title>
<g id="a_edge7"><a xlink:title="tdd_development_convention constrains daily_reflection_habit">
<path fill="none" stroke="red" stroke-dasharray="5,2" d="M611.17,-322.87C634.01,-313.3 663.74,-300.84 687.95,-290.69"/>
<polygon fill="red" stroke="red" points="689.4,-293.88 697.27,-286.78 686.69,-287.42 689.4,-293.88"/>
</a>
</g>
<text text-anchor="middle" x="635.85" y="-307.37" font-family="Arial" font-size="8.00">constrains</text>
</g>
<!-- ai_knowledge_systems_learning -->
<g id="node9" class="node">
<title>ai_knowledge_systems_learning</title>
<g id="a_node9"><a xlink:title="ai_knowledge_systems_learning&#10;Type: Memory&#10;Category: Memory">
<ellipse fill="blue" stroke="black" cx="1332.19" cy="-242.59" rx="64.33" ry="18"/>
<text text-anchor="middle" x="1332.19" y="-240.09" font-family="Arial" font-size="10.00" fill="white">ai_knowledge_syst...</text>
</a>
</g>
</g>
<!-- taxonomy_design_decision -->
<g id="node11" class="node">
<title>taxonomy_design_decision</title>
<g id="a_node11"><a xlink:title="taxonomy_design_decision&#10;Type: DecisionJournal&#10;Category: DecisionJournal">
<ellipse fill="indigo" stroke="black" cx="1070.71" cy="-255.02" rx="66.54" ry="18"/>
<text text-anchor="middle" x="1070.71" y="-252.52" font-family="Arial" font-size="10.00" fill="white">taxonomy_design_d...</text>
</a>
</g>
</g>
<!-- ai_knowledge_systems_learning&#45;&gt;taxonomy_design_decision -->
<g id="edge10" class="edge">
<title>ai_knowledge_systems_learning&#45;&gt;taxonomy_design_decision</title>
<g id="a_edge10"><a xlink:title="ai_knowledge_systems_learning informs taxonomy_design_decision">
<path fill="none" stroke="orange" stroke-dasharray="1,5" d="M1268.89,-245.6C1232.12,-247.35 1185.56,-249.56 1146.8,-251.41"/>
<polygon fill="orange" stroke="orange" points="1146.43,-247.92 1136.61,-251.89 1146.77,-254.91 1146.43,-247.92"/>
</a>
</g>
<text text-anchor="middle" x="1189.16" y="-251.35" font-family="Arial" font-size="8.00">informs</text>
</g>
<!-- scope_creep_risk -->
<g id="node10" class="node">
<title>scope_creep_risk</title>
<g id="a_node10"><a xlink:title="scope_creep_risk&#10;Type: Risks&#10;Category: Risks">
<ellipse fill="darkred" stroke="black" cx="81.98" cy="-281.15" rx="54.99" ry="18"/>
<text text-anchor="middle" x="81.98" y="-278.65" font-family="Arial" font-size="10.00" fill="white">scope_creep_risk</text>
</a>
</g>
</g>
<!-- scope_creep_risk&#45;&gt;knowledge_graph_implementation -->
<g id="edge14" class="edge">
<title>scope_creep_risk&#45;&gt;knowledge_graph_implementation</title>
<g id="a_edge14"><a xlink:title="scope_creep_risk threatens knowledge_graph_implementation">
<path fill="none" stroke="darkred" stroke-width="2" d="M136.67,-282.79C174.22,-283.93 224.36,-285.44 264.71,-286.65"/>
<polygon fill="darkred" stroke="darkred" stroke-width="2" points="269.23,-281.78 268.93,-291.78 266.93,-291.72 267.23,-281.72 269.23,-281.78"/>
<polyline fill="none" stroke="darkred" stroke-width="2" points="270.08,-286.81 265.08,-286.66 "/>
</a>
</g>
<text text-anchor="middle" x="186.3" y="-287.4" font-family="Arial" font-size="8.00">threatens</text>
</g>
<!-- scope_creep_risk&#45;&gt;productivity_optimization_goal -->
<g id="edge15" class="edge">
<title>scope_creep_risk&#45;&gt;productivity_optimization_goal</title>
<g id="a_edge15"><a xlink:title="scope_creep_risk threatens productivity_optimization_goal">
<path fill="none" stroke="darkred" stroke-width="2" d="M94.25,-263.41C114.99,-233.44 156.9,-172.85 179.45,-140.26"/>
<polygon fill="darkred" stroke="darkred" stroke-width="2" points="177.69,-134.03 185.91,-139.72 184.77,-141.36 176.55,-135.67 177.69,-134.03"/>
<polyline fill="none" stroke="darkred" stroke-width="2" points="182.37,-136.05 179.52,-140.16 "/>
</a>
</g>
<text text-anchor="middle" x="121.41" y="-202.19" font-family="Arial" font-size="8.00">threatens</text>
</g>
<!-- taxonomy_design_decision&#45;&gt;daily_reflection_habit -->
<g id="edge13" class="edge">
<title>taxonomy_design_decision&#45;&gt;daily_reflection_habit</title>
<g id="a_edge13"><a xlink:title="taxonomy_design_decision reflects_on daily_reflection_habit">
<path fill="none" stroke="teal" d="M1005.33,-258.37C945.56,-261.43 857.61,-265.94 797.65,-269.01"/>
<polygon fill="teal" stroke="teal" points="787.53,-269.53 797.29,-264.52 792.52,-269.27 797.52,-269.01 797.52,-269.01 797.52,-269.01 792.52,-269.27 797.75,-273.51 787.53,-269.53 787.53,-269.53"/>
</a>
</g>
<text text-anchor="middle" x="876.37" y="-266.55" font-family="Arial" font-size="8.00">reflects_on</text>
</g>
<!-- development_team_relationship -->
<g id="node12" class="node">
<title>development_team_relationship</title>
<g id="a_node12"><a xlink:title="development_team_relationship&#10;Type: Relationships&#10;Category: Relationships">
<ellipse fill="darkcyan" stroke="black" cx="339.26" cy="-18" rx="66.54" ry="18"/>
<text text-anchor="middle" x="339.26" y="-15.5" font-family="Arial" font-size="10.00" fill="white">development_team_...</text>
</a>
</g>
</g>
<!-- development_team_relationship&#45;&gt;knowledge_graph_implementation -->
<g id="edge8" class="edge">
<title>development_team_relationship&#45;&gt;knowledge_graph_implementation</title>
<g id="a_edge8"><a xlink:title="development_team_relationship mentors knowledge_graph_implementation">
<path fill="none" stroke="purple" d="M338.91,-36.18C338.03,-81.84 335.7,-201.71 334.6,-258.31"/>
<polygon fill="purple" stroke="purple" points="334.6,-258.64 338.48,-264.71 334.36,-270.63 330.48,-264.56 334.6,-258.64"/>
</a>
</g>
<text text-anchor="middle" x="321.63" y="-156.28" font-family="Arial" font-size="8.00">mentors</text>
</g>
<!-- development_team_relationship&#45;&gt;productivity_optimization_goal -->
<g id="edge9" class="edge">
<title>development_team_relationship&#45;&gt;productivity_optimization_goal</title>
<g id="a_edge9"><a xlink:title="development_team_relationship mentors productivity_optimization_goal">
<path fill="none" stroke="purple" d="M315.05,-34.79C291.34,-51.24 255,-76.45 228.44,-94.88"/>
<polygon fill="purple" stroke="purple" points="228.29,-94.98 225.64,-101.69 218.43,-101.82 221.08,-95.12 228.29,-94.98"/>
</a>
</g>
<text text-anchor="middle" x="251.68" y="-70.95" font-family="Arial" font-size="8.00">mentors</text>
</g>
<!-- weekly_project_retrospective -->
<g id="node13" class="node">
<title>weekly_project_retrospective</title>
<g id="a_node13"><a xlink:title="weekly_project_retrospective&#10;Type: Retros&#10;Category: Retros">
<ellipse fill="darkgreen" stroke="black" cx="377.31" cy="-576.41" rx="61.44" ry="18"/>
<text text-anchor="middle" x="377.31" y="-573.91" font-family="Arial" font-size="10.00" fill="white">weekly_project_re...</text>
</a>
</g>
</g>
<!-- weekly_project_retrospective&#45;&gt;knowledge_graph_implementation -->
<g id="edge12" class="edge">
<title>weekly_project_retrospective&#45;&gt;knowledge_graph_implementation</title>
<g id="a_edge12"><a xlink:title="weekly_project_retrospective reflects_on knowledge_graph_implementation">
<path fill="none" stroke="teal" d="M374.6,-558.42C367.28,-509.78 347.06,-375.44 338.23,-316.76"/>
<polygon fill="teal" stroke="teal" points="336.72,-306.73 342.66,-315.95 337.46,-311.67 338.21,-316.62 338.21,-316.62 338.21,-316.62 337.46,-311.67 333.76,-317.29 336.72,-306.73 336.72,-306.73"/>
</a>
</g>
<text text-anchor="middle" x="335.7" y="-435.41" font-family="Arial" font-size="8.00">reflects_on</text>
</g>
<!-- legend_categories -->
<g id="node14" class="node">
<title>legend_categories</title>
<polygon fill="lightgrey" stroke="transparent" points="874,-565 765,-565 765,-360 874,-360 874,-565"/>
<polygon fill="white" stroke="transparent" points="773,-364 773,-561 866,-561 866,-364 773,-364"/>
<text text-anchor="start" x="776.5" y="-550.5" font-family="Arial" font-weight="bold" font-size="10.00">TELOS Categories</text>
<polygon fill="red" stroke="transparent" points="774.5,-529.5 774.5,-544.5 789.5,-544.5 789.5,-529.5 774.5,-529.5"/>
<text text-anchor="start" x="777" y="-534.5" font-family="Arial" font-size="10.00"> &#160;&#160;</text>
<text text-anchor="start" x="791.5" y="-534.5" font-family="Arial" font-size="10.00">Identity</text>
<polygon fill="teal" stroke="transparent" points="774.5,-514.5 774.5,-529.5 789.5,-529.5 789.5,-514.5 774.5,-514.5"/>
<text text-anchor="start" x="777" y="-519.5" font-family="Arial" font-size="10.00"> &#160;&#160;</text>
<text text-anchor="start" x="791.5" y="-519.5" font-family="Arial" font-size="10.00">Projects</text>
<polygon fill="darkslategray" stroke="transparent" points="774.5,-499.5 774.5,-514.5 789.5,-514.5 789.5,-499.5 774.5,-499.5"/>
<text text-anchor="start" x="777" y="-504.5" font-family="Arial" font-size="10.00"> &#160;&#160;</text>
<text text-anchor="start" x="791.5" y="-504.5" font-family="Arial" font-size="10.00">Habits</text>
<polygon fill="green" stroke="transparent" points="774.5,-484.5 774.5,-499.5 789.5,-499.5 789.5,-484.5 774.5,-484.5"/>
<text text-anchor="start" x="777" y="-489.5" font-family="Arial" font-size="10.00"> &#160;&#160;</text>
<text text-anchor="start" x="791.5" y="-489.5" font-family="Arial" font-size="10.00">Resources</text>
<polygon fill="darkorange" stroke="transparent" points="774.5,-469.5 774.5,-484.5 789.5,-484.5 789.5,-469.5 774.5,-469.5"/>
<text text-anchor="start" x="777" y="-474.5" font-family="Arial" font-size="10.00"> &#160;&#160;</text>
<text text-anchor="start" x="791.5" y="-474.5" font-family="Arial" font-size="10.00">Objectives</text>
<polygon fill="orange" stroke="transparent" points="774.5,-454.5 774.5,-469.5 789.5,-469.5 789.5,-454.5 774.5,-454.5"/>
<text text-anchor="start" x="777" y="-459.5" font-family="Arial" font-size="10.00"> &#160;&#160;</text>
<text text-anchor="start" x="791.5" y="-459.5" font-family="Arial" font-size="10.00">Context</text>
<polygon fill="purple" stroke="transparent" points="774.5,-439.5 774.5,-454.5 789.5,-454.5 789.5,-439.5 774.5,-439.5"/>
<text text-anchor="start" x="777" y="-444.5" font-family="Arial" font-size="10.00"> &#160;&#160;</text>
<text text-anchor="start" x="791.5" y="-444.5" font-family="Arial" font-size="10.00">Conventions</text>
<polygon fill="blue" stroke="transparent" points="774.5,-424.5 774.5,-439.5 789.5,-439.5 789.5,-424.5 774.5,-424.5"/>
<text text-anchor="start" x="777" y="-429.5" font-family="Arial" font-size="10.00"> &#160;&#160;</text>
<text text-anchor="start" x="791.5" y="-429.5" font-family="Arial" font-size="10.00">Memory</text>
<polygon fill="darkred" stroke="transparent" points="774.5,-409.5 774.5,-424.5 789.5,-424.5 789.5,-409.5 774.5,-409.5"/>
<text text-anchor="start" x="777" y="-414.5" font-family="Arial" font-size="10.00"> &#160;&#160;</text>
<text text-anchor="start" x="791.5" y="-414.5" font-family="Arial" font-size="10.00">Risks</text>
<polygon fill="indigo" stroke="transparent" points="774.5,-394.5 774.5,-409.5 789.5,-409.5 789.5,-394.5 774.5,-394.5"/>
<text text-anchor="start" x="777" y="-399.5" font-family="Arial" font-size="10.00"> &#160;&#160;</text>
<text text-anchor="start" x="791.5" y="-399.5" font-family="Arial" font-size="10.00">DecisionJournal</text>
<polygon fill="darkcyan" stroke="transparent" points="774.5,-379.5 774.5,-394.5 789.5,-394.5 789.5,-379.5 774.5,-379.5"/>
<text text-anchor="start" x="777" y="-384.5" font-family="Arial" font-size="10.00"> &#160;&#160;</text>
<text text-anchor="start" x="791.5" y="-384.5" font-family="Arial" font-size="10.00">Relationships</text>
<polygon fill="darkgreen" stroke="transparent" points="774.5,-364.5 774.5,-379.5 789.5,-379.5 789.5,-364.5 774.5,-364.5"/>
<text text-anchor="start" x="777" y="-369.5" font-family="Arial" font-size="10.00"> &#160;&#160;</text>
<text text-anchor="start" x="791.5" y="-369.5" font-family="Arial" font-size="10.00">Retros</text>
<polygon fill="none" stroke="black" points="773,-364 773,-561 866,-561 866,-364 773,-364"/>
</g>
<!-- legend_relations -->
<g id="node15" class="node">
<title>legend_relations</title>
<polygon fill="lightgrey" stroke="transparent" points="679,-580 585,-580 585,-450 679,-450 679,-580"/>
<polygon fill="white" stroke="transparent" points="593,-454 593,-576 671,-576 671,-454 593,-454"/>
<text text-anchor="start" x="599.5" y="-566" font-family="Arial" font-weight="bold" font-size="10.00">Relationships</text>
<text text-anchor="start" x="596" y="-550" font-family="Arial" font-size="10.00" fill="green">━━━</text>
<text text-anchor="start" x="619" y="-550" font-family="Arial" font-size="10.00">supports</text>
<text text-anchor="start" x="596" y="-535" font-family="Arial" font-size="10.00" fill="blue">━━━</text>
<text text-anchor="start" x="619" y="-535" font-family="Arial" font-size="10.00">enables</text>
<text text-anchor="start" x="596" y="-520" font-family="Arial" font-size="10.00" fill="red">━━━</text>
<text text-anchor="start" x="619" y="-520" font-family="Arial" font-size="10.00">constrains</text>
<text text-anchor="start" x="596" y="-505" font-family="Arial" font-size="10.00" fill="purple">━━━</text>
<text text-anchor="start" x="619" y="-505" font-family="Arial" font-size="10.00">mentors</text>
<text text-anchor="start" x="596" y="-490" font-family="Arial" font-size="10.00" fill="orange">━━━</text>
<text text-anchor="start" x="619" y="-490" font-family="Arial" font-size="10.00">informs</text>
<text text-anchor="start" x="596" y="-475" font-family="Arial" font-size="10.00" fill="teal">━━━</text>
<text text-anchor="start" x="619" y="-475" font-family="Arial" font-size="10.00">reflects_on</text>
<text text-anchor="start" x="596" y="-460" font-family="Arial" font-size="10.00" fill="darkred">━━━</text>
<text text-anchor="start" x="619" y="-460" font-family="Arial" font-size="10.00">threatens</text>
<polygon fill="none" stroke="black" points="593,-454 593,-576 671,-576 671,-454 593,-454"/>
</g>
</g>
</svg>
