<?xml version="1.0" encoding="UTF-8" standalone="no"?>
<!DOCTYPE svg PUBLIC "-//W3C//DTD SVG 1.1//EN"
 "http://www.w3.org/Graphics/SVG/1.1/DTD/svg11.dtd">
<!-- Generated by graphviz version 2.43.0 (0)
 -->
<!-- Title: KnowledgeGraph Pages: 1 -->
<svg width="603pt" height="689pt"
 viewBox="0.00 0.00 603.49 689.47" xmlns="http://www.w3.org/2000/svg" xmlns:xlink="http://www.w3.org/1999/xlink">
<g id="graph0" class="graph" transform="scale(1 1) rotate(0) translate(4 685.47)">
<title>KnowledgeGraph</title>
<polygon fill="white" stroke="transparent" points="-4,4 -4,-685.47 599.49,-685.47 599.49,4 -4,4"/>
<text text-anchor="middle" x="297.75" y="-666.27" font-family="Arial Bold" font-size="14.00">MCP Knowledge Graph</text>
<text text-anchor="middle" x="297.75" y="-651.27" font-family="Arial Bold" font-size="14.00">TELOS Categories &amp; Relationships</text>
<!-- default_user -->
<g id="node1" class="node">
<title>default_user</title>
<g id="a_node1"><a xlink:title="default_user&#10;Type: Identity&#10;Category: Identity">
<ellipse fill="red" stroke="black" cx="337.99" cy="-45.47" rx="41.41" ry="18"/>
<text text-anchor="middle" x="337.99" y="-42.97" font-family="Arial" font-size="10.00" fill="white">default_user</text>
</a>
</g>
</g>
<!-- knowledge_graph_implementation -->
<g id="node2" class="node">
<title>knowledge_graph_implementation</title>
<g id="a_node2"><a xlink:title="knowledge_graph_implementation&#10;Type: Projects&#10;Category: Projects">
<ellipse fill="teal" stroke="black" cx="197.68" cy="-311.78" rx="64.33" ry="18"/>
<text text-anchor="middle" x="197.68" y="-309.28" font-family="Arial" font-size="10.00" fill="white">knowledge_graph_i...</text>
</a>
</g>
</g>
<!-- productivity_optimization_goal -->
<g id="node6" class="node">
<title>productivity_optimization_goal</title>
<g id="a_node6"><a xlink:title="productivity_optimization_goal&#10;Type: Objectives&#10;Category: Objectives">
<ellipse fill="darkorange" stroke="black" cx="491.46" cy="-318.48" rx="57.2" ry="18"/>
<text text-anchor="middle" x="491.46" y="-315.98" font-family="Arial" font-size="10.00" fill="white">productivity_opti...</text>
</a>
</g>
</g>
<!-- knowledge_graph_implementation&#45;&gt;productivity_optimization_goal -->
<g id="edge2" class="edge">
<title>knowledge_graph_implementation&#45;&gt;productivity_optimization_goal</title>
<g id="a_edge2"><a xlink:title="knowledge_graph_implementation supports productivity_optimization_goal">
<path fill="none" stroke="green" d="M261.79,-313.24C309.86,-314.34 375.5,-315.84 424.3,-316.95"/>
<polygon fill="green" stroke="green" points="424.37,-320.45 434.45,-317.18 424.53,-313.45 424.37,-320.45"/>
</a>
</g>
<text text-anchor="middle" x="332.62" y="-317.81" font-family="Arial" font-size="8.00">supports</text>
</g>
<!-- Ubuntu_MATE_Setup -->
<g id="node3" class="node">
<title>Ubuntu_MATE_Setup</title>
<g id="a_node3"><a xlink:title="Ubuntu MATE Setup&#10;Type: Project&#10;Category: Projects">
<ellipse fill="teal" stroke="black" cx="494.99" cy="-72.47" rx="62.97" ry="18"/>
<text text-anchor="middle" x="494.99" y="-69.97" font-family="Arial" font-size="10.00" fill="white">Ubuntu MATE Setup</text>
</a>
</g>
</g>
<!-- daily_reflection_habit -->
<g id="node4" class="node">
<title>daily_reflection_habit</title>
<g id="a_node4"><a xlink:title="daily_reflection_habit&#10;Type: Habits&#10;Category: Habits">
<ellipse fill="darkslategray" stroke="black" cx="278.99" cy="-230.47" rx="56.52" ry="18"/>
<text text-anchor="middle" x="278.99" y="-227.97" font-family="Arial" font-size="10.00" fill="white">daily_reflection_...</text>
</a>
</g>
</g>
<!-- daily_reflection_habit&#45;&gt;knowledge_graph_implementation -->
<g id="edge1" class="edge">
<title>daily_reflection_habit&#45;&gt;knowledge_graph_implementation</title>
<g id="a_edge1"><a xlink:title="daily_reflection_habit supports knowledge_graph_implementation">
<path fill="none" stroke="green" d="M261.75,-247.72C250.29,-259.17 235.07,-274.39 222.34,-287.12"/>
<polygon fill="green" stroke="green" points="219.78,-284.74 215.18,-294.28 224.73,-289.69 219.78,-284.74"/>
</a>
</g>
<text text-anchor="middle" x="222.85" y="-273.72" font-family="Arial" font-size="8.00">supports</text>
</g>
<!-- claude_mcp_integration -->
<g id="node5" class="node">
<title>claude_mcp_integration</title>
<g id="a_node5"><a xlink:title="claude_mcp_integration&#10;Type: Resources&#10;Category: Resources">
<ellipse fill="green" stroke="black" cx="367" cy="-442.94" rx="62.97" ry="18"/>
<text text-anchor="middle" x="367" y="-440.44" font-family="Arial" font-size="10.00" fill="white">claude_mcp_integr...</text>
</a>
</g>
</g>
<!-- claude_mcp_integration&#45;&gt;knowledge_graph_implementation -->
<g id="edge4" class="edge">
<title>claude_mcp_integration&#45;&gt;knowledge_graph_implementation</title>
<g id="a_edge4"><a xlink:title="claude_mcp_integration enables knowledge_graph_implementation">
<path fill="none" stroke="blue" d="M344.86,-425.8C314.87,-402.56 261.21,-360.99 227.63,-334.98"/>
<polygon fill="blue" stroke="blue" points="229.6,-332.08 219.55,-328.73 225.32,-337.62 229.6,-332.08"/>
</a>
</g>
<text text-anchor="middle" x="268.08" y="-379.76" font-family="Arial" font-size="8.00">enables</text>
</g>
<!-- remote_work_context -->
<g id="node7" class="node">
<title>remote_work_context</title>
<g id="a_node7"><a xlink:title="remote_work_context&#10;Type: Context&#10;Category: Context">
<ellipse fill="orange" stroke="black" cx="190.98" cy="-442.94" rx="64.51" ry="18"/>
<text text-anchor="middle" x="190.98" y="-440.44" font-family="Arial" font-size="10.00" fill="white">remote_work_context</text>
</a>
</g>
</g>
<!-- remote_work_context&#45;&gt;knowledge_graph_implementation -->
<g id="edge6" class="edge">
<title>remote_work_context&#45;&gt;knowledge_graph_implementation</title>
<g id="a_edge6"><a xlink:title="remote_work_context constrains knowledge_graph_implementation">
<path fill="none" stroke="red" stroke-dasharray="5,2" d="M191.91,-424.71C193.03,-402.78 194.93,-365.73 196.24,-340.08"/>
<polygon fill="red" stroke="red" points="199.74,-340.03 196.76,-329.86 192.75,-339.67 199.74,-340.03"/>
</a>
</g>
<text text-anchor="middle" x="175.83" y="-379.96" font-family="Arial" font-size="8.00">constrains</text>
</g>
<!-- remote_work_context&#45;&gt;productivity_optimization_goal -->
<g id="edge5" class="edge">
<title>remote_work_context&#45;&gt;productivity_optimization_goal</title>
<g id="a_edge5"><a xlink:title="remote_work_context enables productivity_optimization_goal">
<path fill="none" stroke="blue" d="M235.58,-429.76C295.22,-407.82 399.78,-364.43 454.98,-338.66"/>
<polygon fill="blue" stroke="blue" points="456.5,-341.81 464.04,-334.37 453.51,-335.49 456.5,-341.81"/>
</a>
</g>
<text text-anchor="middle" x="336.27" y="-386.87" font-family="Arial" font-size="8.00">enables</text>
</g>
<!-- remote_work_context&#45;&gt;productivity_optimization_goal -->
<g id="edge11" class="edge">
<title>remote_work_context&#45;&gt;productivity_optimization_goal</title>
<g id="a_edge11"><a xlink:title="remote_work_context informs productivity_optimization_goal">
<path fill="none" stroke="orange" stroke-dasharray="1,5" d="M219.27,-426.63C269.8,-402.46 376.17,-358.06 439.96,-334.23"/>
<polygon fill="orange" stroke="orange" points="441.27,-337.47 449.43,-330.72 438.84,-330.91 441.27,-337.47"/>
</a>
</g>
<text text-anchor="middle" x="319.79" y="-370.3" font-family="Arial" font-size="8.00">informs</text>
</g>
<!-- tdd_development_convention -->
<g id="node8" class="node">
<title>tdd_development_convention</title>
<g id="a_node8"><a xlink:title="tdd_development_convention&#10;Type: Conventions&#10;Category: Conventions">
<ellipse fill="purple" stroke="black" cx="323" cy="-124.24" rx="64.51" ry="18"/>
<text text-anchor="middle" x="323" y="-121.74" font-family="Arial" font-size="10.00" fill="white">tdd_development_c...</text>
</a>
</g>
</g>
<!-- tdd_development_convention&#45;&gt;knowledge_graph_implementation -->
<g id="edge3" class="edge">
<title>tdd_development_convention&#45;&gt;knowledge_graph_implementation</title>
<g id="a_edge3"><a xlink:title="tdd_development_convention supports knowledge_graph_implementation">
<path fill="none" stroke="green" d="M301.01,-141.44C277.82,-160.71 241.79,-194.07 220.88,-230.44 211.45,-246.83 205.64,-267.32 202.19,-283.63"/>
<polygon fill="green" stroke="green" points="198.71,-283.18 200.25,-293.66 205.59,-284.51 198.71,-283.18"/>
</a>
</g>
<text text-anchor="middle" x="221.29" y="-200.32" font-family="Arial" font-size="8.00">supports</text>
</g>
<!-- tdd_development_convention&#45;&gt;daily_reflection_habit -->
<g id="edge7" class="edge">
<title>tdd_development_convention&#45;&gt;daily_reflection_habit</title>
<g id="a_edge7"><a xlink:title="tdd_development_convention constrains daily_reflection_habit">
<path fill="none" stroke="red" stroke-dasharray="5,2" d="M315.53,-142.26C308.64,-158.89 298.31,-183.84 290.38,-202.97"/>
<polygon fill="red" stroke="red" points="287.09,-201.78 286.49,-212.36 293.55,-204.46 287.09,-201.78"/>
</a>
</g>
<text text-anchor="middle" x="282.55" y="-179.82" font-family="Arial" font-size="8.00">constrains</text>
</g>
<!-- ai_knowledge_systems_learning -->
<g id="node9" class="node">
<title>ai_knowledge_systems_learning</title>
<g id="a_node9"><a xlink:title="ai_knowledge_systems_learning&#10;Type: Memory&#10;Category: Memory">
<ellipse fill="blue" stroke="black" cx="491.46" cy="-142.46" rx="64.33" ry="18"/>
<text text-anchor="middle" x="491.46" y="-139.96" font-family="Arial" font-size="10.00" fill="white">ai_knowledge_syst...</text>
</a>
</g>
</g>
<!-- taxonomy_design_decision -->
<g id="node11" class="node">
<title>taxonomy_design_decision</title>
<g id="a_node11"><a xlink:title="taxonomy_design_decision&#10;Type: DecisionJournal&#10;Category: DecisionJournal">
<ellipse fill="indigo" stroke="black" cx="385.23" cy="-186.47" rx="66.54" ry="18"/>
<text text-anchor="middle" x="385.23" y="-183.97" font-family="Arial" font-size="10.00" fill="white">taxonomy_design_d...</text>
</a>
</g>
</g>
<!-- ai_knowledge_systems_learning&#45;&gt;taxonomy_design_decision -->
<g id="edge10" class="edge">
<title>ai_knowledge_systems_learning&#45;&gt;taxonomy_design_decision</title>
<g id="a_edge10"><a xlink:title="ai_knowledge_systems_learning informs taxonomy_design_decision">
<path fill="none" stroke="orange" stroke-dasharray="1,5" d="M455.2,-157.48C447.42,-160.71 439.11,-164.15 431.03,-167.5"/>
<polygon fill="orange" stroke="orange" points="429.59,-164.3 421.69,-171.37 432.27,-170.77 429.59,-164.3"/>
</a>
</g>
<text text-anchor="middle" x="424.77" y="-158.1" font-family="Arial" font-size="8.00">informs</text>
</g>
<!-- scope_creep_risk -->
<g id="node10" class="node">
<title>scope_creep_risk</title>
<g id="a_node10"><a xlink:title="scope_creep_risk&#10;Type: Risks&#10;Category: Risks">
<ellipse fill="darkred" stroke="black" cx="66.52" cy="-318.48" rx="54.99" ry="18"/>
<text text-anchor="middle" x="66.52" y="-315.98" font-family="Arial" font-size="10.00" fill="white">scope_creep_risk</text>
</a>
</g>
</g>
<!-- scope_creep_risk&#45;&gt;knowledge_graph_implementation -->
<g id="edge14" class="edge">
<title>scope_creep_risk&#45;&gt;knowledge_graph_implementation</title>
<g id="a_edge14"><a xlink:title="scope_creep_risk threatens knowledge_graph_implementation">
<path fill="none" stroke="darkred" stroke-width="2" d="M120.62,-315.72C123.45,-315.57 126.3,-315.43 129.16,-315.28"/>
<polygon fill="darkred" stroke="darkred" stroke-width="2" points="133.06,-310.08 133.57,-320.06 131.57,-320.16 131.06,-310.18 133.06,-310.08"/>
<polyline fill="none" stroke="darkred" stroke-width="2" points="134.31,-315.02 129.32,-315.27 "/>
</a>
</g>
<text text-anchor="middle" x="127.55" y="-308.96" font-family="Arial" font-size="8.00">threatens</text>
</g>
<!-- scope_creep_risk&#45;&gt;productivity_optimization_goal -->
<g id="edge15" class="edge">
<title>scope_creep_risk&#45;&gt;productivity_optimization_goal</title>
<g id="a_edge15"><a xlink:title="scope_creep_risk threatens productivity_optimization_goal">
<path fill="none" stroke="darkred" stroke-width="2" d="M117.49,-325.19C141.73,-327.95 171.15,-330.66 197.68,-331.38 278.43,-333.57 371.59,-328.12 430.97,-323.65"/>
<polygon fill="darkred" stroke="darkred" stroke-width="2" points="434.88,-318.33 435.64,-328.31 433.64,-328.46 432.88,-318.49 434.88,-318.33"/>
<polyline fill="none" stroke="darkred" stroke-width="2" points="436.25,-323.24 431.27,-323.62 "/>
</a>
</g>
<text text-anchor="middle" x="260.09" y="-334.03" font-family="Arial" font-size="8.00">threatens</text>
</g>
<!-- taxonomy_design_decision&#45;&gt;daily_reflection_habit -->
<g id="edge13" class="edge">
<title>taxonomy_design_decision&#45;&gt;daily_reflection_habit</title>
<g id="a_edge13"><a xlink:title="taxonomy_design_decision reflects_on daily_reflection_habit">
<path fill="none" stroke="teal" d="M348.67,-201.61C340.38,-205.04 331.5,-208.72 322.94,-212.27"/>
<polygon fill="teal" stroke="teal" points="313.47,-216.19 320.99,-208.21 318.09,-214.28 322.71,-212.36 322.71,-212.36 322.71,-212.36 318.09,-214.28 324.43,-216.52 313.47,-216.19 313.47,-216.19"/>
</a>
</g>
<text text-anchor="middle" x="351.03" y="-211.52" font-family="Arial" font-size="8.00">reflects_on</text>
</g>
<!-- development_team_relationship -->
<g id="node12" class="node">
<title>development_team_relationship</title>
<g id="a_node12"><a xlink:title="development_team_relationship&#10;Type: Relationships&#10;Category: Relationships">
<ellipse fill="darkcyan" stroke="black" cx="66.52" cy="-142.46" rx="66.54" ry="18"/>
<text text-anchor="middle" x="66.52" y="-139.96" font-family="Arial" font-size="10.00" fill="white">development_team_...</text>
</a>
</g>
</g>
<!-- development_team_relationship&#45;&gt;knowledge_graph_implementation -->
<g id="edge8" class="edge">
<title>development_team_relationship&#45;&gt;knowledge_graph_implementation</title>
<g id="a_edge8"><a xlink:title="development_team_relationship mentors knowledge_graph_implementation">
<path fill="none" stroke="purple" d="M80.31,-160.26C103.24,-189.86 149.35,-249.39 176.45,-284.38"/>
<polygon fill="purple" stroke="purple" points="176.53,-284.48 183.37,-286.77 183.88,-293.97 177.04,-291.67 176.53,-284.48"/>
</a>
</g>
<text text-anchor="middle" x="117.24" y="-229.91" font-family="Arial" font-size="8.00">mentors</text>
</g>
<!-- development_team_relationship&#45;&gt;productivity_optimization_goal -->
<g id="edge9" class="edge">
<title>development_team_relationship&#45;&gt;productivity_optimization_goal</title>
<g id="a_edge9"><a xlink:title="development_team_relationship mentors productivity_optimization_goal">
<path fill="none" stroke="purple" d="M90.44,-159.34C122.64,-181.43 182.31,-220.15 237.83,-244.31 302.03,-272.24 379.82,-293.23 432.19,-305.63"/>
<polygon fill="purple" stroke="purple" points="432.25,-305.64 439.01,-303.11 443.94,-308.37 437.19,-310.9 432.25,-305.64"/>
</a>
</g>
<text text-anchor="middle" x="244.72" y="-255.98" font-family="Arial" font-size="8.00">mentors</text>
</g>
<!-- weekly_project_retrospective -->
<g id="node13" class="node">
<title>weekly_project_retrospective</title>
<g id="a_node13"><a xlink:title="weekly_project_retrospective&#10;Type: Retros&#10;Category: Retros">
<ellipse fill="darkgreen" stroke="black" cx="190.98" cy="-18" rx="61.44" ry="18"/>
<text text-anchor="middle" x="190.98" y="-15.5" font-family="Arial" font-size="10.00" fill="white">weekly_project_re...</text>
</a>
</g>
</g>
<!-- weekly_project_retrospective&#45;&gt;knowledge_graph_implementation -->
<g id="edge12" class="edge">
<title>weekly_project_retrospective&#45;&gt;knowledge_graph_implementation</title>
<g id="a_edge12"><a xlink:title="weekly_project_retrospective reflects_on knowledge_graph_implementation">
<path fill="none" stroke="teal" d="M191.4,-36.38C192.53,-86.05 195.66,-223.24 197.03,-283.16"/>
<polygon fill="teal" stroke="teal" points="197.26,-293.41 192.54,-283.52 197.15,-288.41 197.03,-283.41 197.03,-283.41 197.03,-283.41 197.15,-288.41 201.53,-283.31 197.26,-293.41 197.26,-293.41"/>
</a>
</g>
<text text-anchor="middle" x="174.33" y="-167.25" font-family="Arial" font-size="8.00">reflects_on</text>
</g>
<!-- legend_categories -->
<g id="node14" class="node">
<title>legend_categories</title>
<polygon fill="lightgrey" stroke="transparent" points="595.49,-582.97 486.49,-582.97 486.49,-377.97 595.49,-377.97 595.49,-582.97"/>
<polygon fill="white" stroke="transparent" points="494.49,-381.97 494.49,-578.97 587.49,-578.97 587.49,-381.97 494.49,-381.97"/>
<text text-anchor="start" x="497.99" y="-568.47" font-family="Arial" font-weight="bold" font-size="10.00">TELOS Categories</text>
<polygon fill="red" stroke="transparent" points="495.99,-547.47 495.99,-562.47 510.99,-562.47 510.99,-547.47 495.99,-547.47"/>
<text text-anchor="start" x="498.49" y="-552.47" font-family="Arial" font-size="10.00"> &#160;&#160;</text>
<text text-anchor="start" x="512.99" y="-552.47" font-family="Arial" font-size="10.00">Identity</text>
<polygon fill="teal" stroke="transparent" points="495.99,-532.47 495.99,-547.47 510.99,-547.47 510.99,-532.47 495.99,-532.47"/>
<text text-anchor="start" x="498.49" y="-537.47" font-family="Arial" font-size="10.00"> &#160;&#160;</text>
<text text-anchor="start" x="512.99" y="-537.47" font-family="Arial" font-size="10.00">Projects</text>
<polygon fill="darkslategray" stroke="transparent" points="495.99,-517.47 495.99,-532.47 510.99,-532.47 510.99,-517.47 495.99,-517.47"/>
<text text-anchor="start" x="498.49" y="-522.47" font-family="Arial" font-size="10.00"> &#160;&#160;</text>
<text text-anchor="start" x="512.99" y="-522.47" font-family="Arial" font-size="10.00">Habits</text>
<polygon fill="green" stroke="transparent" points="495.99,-502.47 495.99,-517.47 510.99,-517.47 510.99,-502.47 495.99,-502.47"/>
<text text-anchor="start" x="498.49" y="-507.47" font-family="Arial" font-size="10.00"> &#160;&#160;</text>
<text text-anchor="start" x="512.99" y="-507.47" font-family="Arial" font-size="10.00">Resources</text>
<polygon fill="darkorange" stroke="transparent" points="495.99,-487.47 495.99,-502.47 510.99,-502.47 510.99,-487.47 495.99,-487.47"/>
<text text-anchor="start" x="498.49" y="-492.47" font-family="Arial" font-size="10.00"> &#160;&#160;</text>
<text text-anchor="start" x="512.99" y="-492.47" font-family="Arial" font-size="10.00">Objectives</text>
<polygon fill="orange" stroke="transparent" points="495.99,-472.47 495.99,-487.47 510.99,-487.47 510.99,-472.47 495.99,-472.47"/>
<text text-anchor="start" x="498.49" y="-477.47" font-family="Arial" font-size="10.00"> &#160;&#160;</text>
<text text-anchor="start" x="512.99" y="-477.47" font-family="Arial" font-size="10.00">Context</text>
<polygon fill="purple" stroke="transparent" points="495.99,-457.47 495.99,-472.47 510.99,-472.47 510.99,-457.47 495.99,-457.47"/>
<text text-anchor="start" x="498.49" y="-462.47" font-family="Arial" font-size="10.00"> &#160;&#160;</text>
<text text-anchor="start" x="512.99" y="-462.47" font-family="Arial" font-size="10.00">Conventions</text>
<polygon fill="blue" stroke="transparent" points="495.99,-442.47 495.99,-457.47 510.99,-457.47 510.99,-442.47 495.99,-442.47"/>
<text text-anchor="start" x="498.49" y="-447.47" font-family="Arial" font-size="10.00"> &#160;&#160;</text>
<text text-anchor="start" x="512.99" y="-447.47" font-family="Arial" font-size="10.00">Memory</text>
<polygon fill="darkred" stroke="transparent" points="495.99,-427.47 495.99,-442.47 510.99,-442.47 510.99,-427.47 495.99,-427.47"/>
<text text-anchor="start" x="498.49" y="-432.47" font-family="Arial" font-size="10.00"> &#160;&#160;</text>
<text text-anchor="start" x="512.99" y="-432.47" font-family="Arial" font-size="10.00">Risks</text>
<polygon fill="indigo" stroke="transparent" points="495.99,-412.47 495.99,-427.47 510.99,-427.47 510.99,-412.47 495.99,-412.47"/>
<text text-anchor="start" x="498.49" y="-417.47" font-family="Arial" font-size="10.00"> &#160;&#160;</text>
<text text-anchor="start" x="512.99" y="-417.47" font-family="Arial" font-size="10.00">DecisionJournal</text>
<polygon fill="darkcyan" stroke="transparent" points="495.99,-397.47 495.99,-412.47 510.99,-412.47 510.99,-397.47 495.99,-397.47"/>
<text text-anchor="start" x="498.49" y="-402.47" font-family="Arial" font-size="10.00"> &#160;&#160;</text>
<text text-anchor="start" x="512.99" y="-402.47" font-family="Arial" font-size="10.00">Relationships</text>
<polygon fill="darkgreen" stroke="transparent" points="495.99,-382.47 495.99,-397.47 510.99,-397.47 510.99,-382.47 495.99,-382.47"/>
<text text-anchor="start" x="498.49" y="-387.47" font-family="Arial" font-size="10.00"> &#160;&#160;</text>
<text text-anchor="start" x="512.99" y="-387.47" font-family="Arial" font-size="10.00">Retros</text>
<polygon fill="none" stroke="black" points="494.49,-381.97 494.49,-578.97 587.49,-578.97 587.49,-381.97 494.49,-381.97"/>
</g>
<!-- legend_relations -->
<g id="node15" class="node">
<title>legend_relations</title>
<polygon fill="lightgrey" stroke="transparent" points="444.99,-643.47 350.99,-643.47 350.99,-513.47 444.99,-513.47 444.99,-643.47"/>
<polygon fill="white" stroke="transparent" points="358.99,-517.47 358.99,-639.47 436.99,-639.47 436.99,-517.47 358.99,-517.47"/>
<text text-anchor="start" x="365.49" y="-629.47" font-family="Arial" font-weight="bold" font-size="10.00">Relationships</text>
<text text-anchor="start" x="361.99" y="-613.47" font-family="Arial" font-size="10.00" fill="green">━━━</text>
<text text-anchor="start" x="384.99" y="-613.47" font-family="Arial" font-size="10.00">supports</text>
<text text-anchor="start" x="361.99" y="-598.47" font-family="Arial" font-size="10.00" fill="blue">━━━</text>
<text text-anchor="start" x="384.99" y="-598.47" font-family="Arial" font-size="10.00">enables</text>
<text text-anchor="start" x="361.99" y="-583.47" font-family="Arial" font-size="10.00" fill="red">━━━</text>
<text text-anchor="start" x="384.99" y="-583.47" font-family="Arial" font-size="10.00">constrains</text>
<text text-anchor="start" x="361.99" y="-568.47" font-family="Arial" font-size="10.00" fill="purple">━━━</text>
<text text-anchor="start" x="384.99" y="-568.47" font-family="Arial" font-size="10.00">mentors</text>
<text text-anchor="start" x="361.99" y="-553.47" font-family="Arial" font-size="10.00" fill="orange">━━━</text>
<text text-anchor="start" x="384.99" y="-553.47" font-family="Arial" font-size="10.00">informs</text>
<text text-anchor="start" x="361.99" y="-538.47" font-family="Arial" font-size="10.00" fill="teal">━━━</text>
<text text-anchor="start" x="384.99" y="-538.47" font-family="Arial" font-size="10.00">reflects_on</text>
<text text-anchor="start" x="361.99" y="-523.47" font-family="Arial" font-size="10.00" fill="darkred">━━━</text>
<text text-anchor="start" x="384.99" y="-523.47" font-family="Arial" font-size="10.00">threatens</text>
<polygon fill="none" stroke="black" points="358.99,-517.47 358.99,-639.47 436.99,-639.47 436.99,-517.47 358.99,-517.47"/>
</g>
</g>
</svg>
