<?xml version="1.0" encoding="UTF-8" standalone="no"?>
<!DOCTYPE svg PUBLIC "-//W3C//DTD SVG 1.1//EN"
 "http://www.w3.org/Graphics/SVG/1.1/DTD/svg11.dtd">
<!-- Generated by graphviz version 2.43.0 (0)
 -->
<!-- Title: KnowledgeGraph Pages: 1 -->
<svg width="854pt" height="890pt"
 viewBox="0.00 0.00 853.51 890.13" xmlns="http://www.w3.org/2000/svg" xmlns:xlink="http://www.w3.org/1999/xlink">
<g id="graph0" class="graph" transform="scale(1 1) rotate(0) translate(4 886.13)">
<title>KnowledgeGraph</title>
<polygon fill="white" stroke="transparent" points="-4,4 -4,-886.13 849.51,-886.13 849.51,4 -4,4"/>
<text text-anchor="middle" x="422.75" y="-866.93" font-family="Arial Bold" font-size="14.00">MCP Knowledge Graph</text>
<text text-anchor="middle" x="422.75" y="-851.93" font-family="Arial Bold" font-size="14.00">TELOS Categories &amp; Relationships</text>
<!-- default_user -->
<g id="node1" class="node">
<title>default_user</title>
<g id="a_node1"><a xlink:title="default_user&#10;Type: Identity&#10;Category: Identity">
<ellipse fill="red" stroke="black" cx="200.52" cy="-697.63" rx="41.41" ry="18"/>
<text text-anchor="middle" x="200.52" y="-695.13" font-family="Arial" font-size="10.00" fill="white">default_user</text>
</a>
</g>
</g>
<!-- knowledge_graph_implementation -->
<g id="node2" class="node">
<title>knowledge_graph_implementation</title>
<g id="a_node2"><a xlink:title="knowledge_graph_implementation&#10;Type: Projects&#10;Category: Projects">
<ellipse fill="teal" stroke="black" cx="361.69" cy="-396.63" rx="64.33" ry="18"/>
<text text-anchor="middle" x="361.69" y="-394.13" font-family="Arial" font-size="10.00" fill="white">knowledge_graph_i...</text>
</a>
</g>
</g>
<!-- productivity_optimization_goal -->
<g id="node6" class="node">
<title>productivity_optimization_goal</title>
<g id="a_node6"><a xlink:title="productivity_optimization_goal&#10;Type: Objectives&#10;Category: Objectives">
<ellipse fill="darkorange" stroke="black" cx="66.52" cy="-492.53" rx="57.2" ry="18"/>
<text text-anchor="middle" x="66.52" y="-490.03" font-family="Arial" font-size="10.00" fill="white">productivity_opti...</text>
</a>
</g>
</g>
<!-- knowledge_graph_implementation&#45;&gt;productivity_optimization_goal -->
<g id="edge2" class="edge">
<title>knowledge_graph_implementation&#45;&gt;productivity_optimization_goal</title>
<g id="a_edge2"><a xlink:title="knowledge_graph_implementation supports productivity_optimization_goal">
<path fill="none" stroke="green" d="M319.71,-410.26C266,-427.72 173.09,-457.9 116,-476.46"/>
<polygon fill="green" stroke="green" points="114.89,-473.13 106.46,-479.55 117.05,-479.79 114.89,-473.13"/>
</a>
</g>
<text text-anchor="middle" x="197.54" y="-447.53" font-family="Arial" font-size="8.00">supports</text>
</g>
<!-- Ubuntu_MATE_Setup -->
<g id="node3" class="node">
<title>Ubuntu_MATE_Setup</title>
<g id="a_node3"><a xlink:title="Ubuntu MATE Setup&#10;Type: Project&#10;Category: Projects">
<ellipse fill="teal" stroke="black" cx="782.52" cy="-697.63" rx="62.97" ry="18"/>
<text text-anchor="middle" x="782.52" y="-695.13" font-family="Arial" font-size="10.00" fill="white">Ubuntu MATE Setup</text>
</a>
</g>
</g>
<!-- daily_reflection_habit -->
<g id="node4" class="node">
<title>daily_reflection_habit</title>
<g id="a_node4"><a xlink:title="daily_reflection_habit&#10;Type: Habits&#10;Category: Habits">
<ellipse fill="darkslategray" stroke="black" cx="715.43" cy="-333.47" rx="56.52" ry="18"/>
<text text-anchor="middle" x="715.43" y="-330.97" font-family="Arial" font-size="10.00" fill="white">daily_reflection_...</text>
</a>
</g>
</g>
<!-- daily_reflection_habit&#45;&gt;knowledge_graph_implementation -->
<g id="edge1" class="edge">
<title>daily_reflection_habit&#45;&gt;knowledge_graph_implementation</title>
<g id="a_edge1"><a xlink:title="daily_reflection_habit supports knowledge_graph_implementation">
<path fill="none" stroke="green" d="M665.87,-342.32C603.07,-353.53 494.73,-372.87 425.72,-385.19"/>
<polygon fill="green" stroke="green" points="425.06,-381.75 415.83,-386.96 426.29,-388.65 425.06,-381.75"/>
</a>
</g>
<text text-anchor="middle" x="525.47" y="-367.22" font-family="Arial" font-size="8.00">supports</text>
</g>
<!-- claude_mcp_integration -->
<g id="node5" class="node">
<title>claude_mcp_integration</title>
<g id="a_node5"><a xlink:title="claude_mcp_integration&#10;Type: Resources&#10;Category: Resources">
<ellipse fill="green" stroke="black" cx="658.99" cy="-596.53" rx="62.97" ry="18"/>
<text text-anchor="middle" x="658.99" y="-594.03" font-family="Arial" font-size="10.00" fill="white">claude_mcp_integr...</text>
</a>
</g>
</g>
<!-- claude_mcp_integration&#45;&gt;knowledge_graph_implementation -->
<g id="edge4" class="edge">
<title>claude_mcp_integration&#45;&gt;knowledge_graph_implementation</title>
<g id="a_edge4"><a xlink:title="claude_mcp_integration enables knowledge_graph_implementation">
<path fill="none" stroke="blue" d="M634.15,-579.83C580.81,-543.96 455.28,-459.56 395.06,-419.06"/>
<polygon fill="blue" stroke="blue" points="396.91,-416.09 386.66,-413.42 393.01,-421.9 396.91,-416.09"/>
</a>
</g>
<text text-anchor="middle" x="496.24" y="-499.11" font-family="Arial" font-size="8.00">enables</text>
</g>
<!-- remote_work_context -->
<g id="node7" class="node">
<title>remote_work_context</title>
<g id="a_node7"><a xlink:title="remote_work_context&#10;Type: Context&#10;Category: Context">
<ellipse fill="orange" stroke="black" cx="248.94" cy="-241.45" rx="64.51" ry="18"/>
<text text-anchor="middle" x="248.94" y="-238.95" font-family="Arial" font-size="10.00" fill="white">remote_work_context</text>
</a>
</g>
</g>
<!-- remote_work_context&#45;&gt;knowledge_graph_implementation -->
<g id="edge6" class="edge">
<title>remote_work_context&#45;&gt;knowledge_graph_implementation</title>
<g id="a_edge6"><a xlink:title="remote_work_context constrains knowledge_graph_implementation">
<path fill="none" stroke="red" stroke-dasharray="5,2" d="M261.87,-259.25C281.65,-286.46 319.51,-338.58 342.5,-370.21"/>
<polygon fill="red" stroke="red" points="339.85,-372.52 348.56,-378.55 345.51,-368.41 339.85,-372.52"/>
</a>
</g>
<text text-anchor="middle" x="286.65" y="-321.42" font-family="Arial" font-size="8.00">constrains</text>
</g>
<!-- remote_work_context&#45;&gt;productivity_optimization_goal -->
<g id="edge5" class="edge">
<title>remote_work_context&#45;&gt;productivity_optimization_goal</title>
<g id="a_edge5"><a xlink:title="remote_work_context enables productivity_optimization_goal">
<path fill="none" stroke="blue" d="M231.52,-258.89C195.44,-302.16 113.84,-414.28 80.7,-465.89"/>
<polygon fill="blue" stroke="blue" points="77.64,-464.18 75.28,-474.5 83.57,-467.91 77.64,-464.18"/>
</a>
</g>
<text text-anchor="middle" x="136.92" y="-367.48" font-family="Arial" font-size="8.00">enables</text>
</g>
<!-- remote_work_context&#45;&gt;productivity_optimization_goal -->
<g id="edge11" class="edge">
<title>remote_work_context&#45;&gt;productivity_optimization_goal</title>
<g id="a_edge11"><a xlink:title="remote_work_context informs productivity_optimization_goal">
<path fill="none" stroke="orange" stroke-dasharray="1,5" d="M240.1,-259.61C212.92,-303.77 131.38,-416.53 90.38,-467.24"/>
<polygon fill="orange" stroke="orange" points="87.56,-465.15 83.93,-475.11 92.97,-469.59 87.56,-465.15"/>
</a>
</g>
<text text-anchor="middle" x="178.15" y="-371.55" font-family="Arial" font-size="8.00">informs</text>
</g>
<!-- tdd_development_convention -->
<g id="node8" class="node">
<title>tdd_development_convention</title>
<g id="a_node8"><a xlink:title="tdd_development_convention&#10;Type: Conventions&#10;Category: Conventions">
<ellipse fill="purple" stroke="black" cx="764.31" cy="-452.08" rx="64.51" ry="18"/>
<text text-anchor="middle" x="764.31" y="-449.58" font-family="Arial" font-size="10.00" fill="white">tdd_development_c...</text>
</a>
</g>
</g>
<!-- tdd_development_convention&#45;&gt;knowledge_graph_implementation -->
<g id="edge3" class="edge">
<title>tdd_development_convention&#45;&gt;knowledge_graph_implementation</title>
<g id="a_edge3"><a xlink:title="tdd_development_convention supports knowledge_graph_implementation">
<path fill="none" stroke="green" d="M706.19,-444.07C632.93,-433.98 507.22,-416.67 429.61,-405.98"/>
<polygon fill="green" stroke="green" points="429.84,-402.48 419.46,-404.58 428.88,-409.41 429.84,-402.48"/>
</a>
</g>
<text text-anchor="middle" x="547.55" y="-426.96" font-family="Arial" font-size="8.00">supports</text>
</g>
<!-- tdd_development_convention&#45;&gt;daily_reflection_habit -->
<g id="edge7" class="edge">
<title>tdd_development_convention&#45;&gt;daily_reflection_habit</title>
<g id="a_edge7"><a xlink:title="tdd_development_convention constrains daily_reflection_habit">
<path fill="none" stroke="red" stroke-dasharray="5,2" d="M756.88,-434.06C748.88,-414.64 736.05,-383.5 726.78,-361"/>
<polygon fill="red" stroke="red" points="729.97,-359.56 722.93,-351.65 723.5,-362.23 729.97,-359.56"/>
</a>
</g>
<text text-anchor="middle" x="721.54" y="-395.78" font-family="Arial" font-size="8.00">constrains</text>
</g>
<!-- ai_knowledge_systems_learning -->
<g id="node9" class="node">
<title>ai_knowledge_systems_learning</title>
<g id="a_node9"><a xlink:title="ai_knowledge_systems_learning&#10;Type: Memory&#10;Category: Memory">
<ellipse fill="blue" stroke="black" cx="585.44" cy="-18" rx="64.33" ry="18"/>
<text text-anchor="middle" x="585.44" y="-15.5" font-family="Arial" font-size="10.00" fill="white">ai_knowledge_syst...</text>
</a>
</g>
</g>
<!-- taxonomy_design_decision -->
<g id="node11" class="node">
<title>taxonomy_design_decision</title>
<g id="a_node11"><a xlink:title="taxonomy_design_decision&#10;Type: DecisionJournal&#10;Category: DecisionJournal">
<ellipse fill="indigo" stroke="black" cx="662.66" cy="-205.4" rx="66.54" ry="18"/>
<text text-anchor="middle" x="662.66" y="-202.9" font-family="Arial" font-size="10.00" fill="white">taxonomy_design_d...</text>
</a>
</g>
</g>
<!-- ai_knowledge_systems_learning&#45;&gt;taxonomy_design_decision -->
<g id="edge10" class="edge">
<title>ai_knowledge_systems_learning&#45;&gt;taxonomy_design_decision</title>
<g id="a_edge10"><a xlink:title="ai_knowledge_systems_learning informs taxonomy_design_decision">
<path fill="none" stroke="orange" stroke-dasharray="1,5" d="M592.84,-35.97C606.39,-68.85 635.26,-138.89 651.3,-177.84"/>
<polygon fill="orange" stroke="orange" points="648.23,-179.57 655.28,-187.48 654.7,-176.9 648.23,-179.57"/>
</a>
</g>
<text text-anchor="middle" x="610.46" y="-114.07" font-family="Arial" font-size="8.00">informs</text>
</g>
<!-- scope_creep_risk -->
<g id="node10" class="node">
<title>scope_creep_risk</title>
<g id="a_node10"><a xlink:title="scope_creep_risk&#10;Type: Risks&#10;Category: Risks">
<ellipse fill="darkred" stroke="black" cx="248.94" cy="-551.8" rx="54.99" ry="18"/>
<text text-anchor="middle" x="248.94" y="-549.3" font-family="Arial" font-size="10.00" fill="white">scope_creep_risk</text>
</a>
</g>
</g>
<!-- scope_creep_risk&#45;&gt;knowledge_graph_implementation -->
<g id="edge14" class="edge">
<title>scope_creep_risk&#45;&gt;knowledge_graph_implementation</title>
<g id="a_edge14"><a xlink:title="scope_creep_risk threatens knowledge_graph_implementation">
<path fill="none" stroke="darkred" stroke-width="2" d="M261.87,-534C282.49,-505.62 322.78,-450.17 345.36,-419.1"/>
<polygon fill="darkred" stroke="darkred" stroke-width="2" points="343.92,-412.57 352.01,-418.45 350.84,-420.06 342.75,-414.19 343.92,-412.57"/>
<polyline fill="none" stroke="darkred" stroke-width="2" points="348.56,-414.7 345.62,-418.74 "/>
</a>
</g>
<text text-anchor="middle" x="288.42" y="-476.67" font-family="Arial" font-size="8.00">threatens</text>
</g>
<!-- scope_creep_risk&#45;&gt;productivity_optimization_goal -->
<g id="edge15" class="edge">
<title>scope_creep_risk&#45;&gt;productivity_optimization_goal</title>
<g id="a_edge15"><a xlink:title="scope_creep_risk threatens productivity_optimization_goal">
<path fill="none" stroke="darkred" stroke-width="2" d="M209.81,-539.09C180.89,-529.69 141.47,-516.88 111.29,-507.08"/>
<polygon fill="darkred" stroke="darkred" stroke-width="2" points="105.94,-510.6 109.03,-501.09 110.93,-501.7 107.84,-511.22 105.94,-510.6"/>
<polyline fill="none" stroke="darkred" stroke-width="2" points="106.53,-505.53 111.29,-507.08 "/>
</a>
</g>
<text text-anchor="middle" x="141.19" y="-524.92" font-family="Arial" font-size="8.00">threatens</text>
</g>
<!-- taxonomy_design_decision&#45;&gt;daily_reflection_habit -->
<g id="edge13" class="edge">
<title>taxonomy_design_decision&#45;&gt;daily_reflection_habit</title>
<g id="a_edge13"><a xlink:title="taxonomy_design_decision reflects_on daily_reflection_habit">
<path fill="none" stroke="teal" d="M670.11,-223.48C678.99,-245.02 693.91,-281.25 704.2,-306.2"/>
<polygon fill="teal" stroke="teal" points="708.02,-315.48 700.05,-307.95 706.12,-310.86 704.21,-306.24 704.21,-306.24 704.21,-306.24 706.12,-310.86 708.37,-304.52 708.02,-315.48 708.02,-315.48"/>
</a>
</g>
<text text-anchor="middle" x="669.07" y="-272.1" font-family="Arial" font-size="8.00">reflects_on</text>
</g>
<!-- development_team_relationship -->
<g id="node12" class="node">
<title>development_team_relationship</title>
<g id="a_node12"><a xlink:title="development_team_relationship&#10;Type: Relationships&#10;Category: Relationships">
<ellipse fill="darkcyan" stroke="black" cx="66.52" cy="-300.72" rx="66.54" ry="18"/>
<text text-anchor="middle" x="66.52" y="-298.22" font-family="Arial" font-size="10.00" fill="white">development_team_...</text>
</a>
</g>
</g>
<!-- development_team_relationship&#45;&gt;knowledge_graph_implementation -->
<g id="edge8" class="edge">
<title>development_team_relationship&#45;&gt;knowledge_graph_implementation</title>
<g id="a_edge8"><a xlink:title="development_team_relationship mentors knowledge_graph_implementation">
<path fill="none" stroke="purple" d="M109.12,-314.56C161.59,-331.61 250.75,-360.58 307.89,-379.15"/>
<polygon fill="purple" stroke="purple" points="308.16,-379.23 315.1,-377.28 319.57,-382.94 312.63,-384.89 308.16,-379.23"/>
</a>
</g>
<text text-anchor="middle" x="199.35" y="-351.35" font-family="Arial" font-size="8.00">mentors</text>
</g>
<!-- development_team_relationship&#45;&gt;productivity_optimization_goal -->
<g id="edge9" class="edge">
<title>development_team_relationship&#45;&gt;productivity_optimization_goal</title>
<g id="a_edge9"><a xlink:title="development_team_relationship mentors productivity_optimization_goal">
<path fill="none" stroke="purple" d="M66.52,-318.77C66.52,-351.68 66.52,-421.79 66.52,-462.17"/>
<polygon fill="purple" stroke="purple" points="66.52,-462.39 70.52,-468.39 66.52,-474.39 62.52,-468.39 66.52,-462.39"/>
</a>
</g>
<text text-anchor="middle" x="51.52" y="-399.05" font-family="Arial" font-size="8.00">mentors</text>
</g>
<!-- weekly_project_retrospective -->
<g id="node13" class="node">
<title>weekly_project_retrospective</title>
<g id="a_node13"><a xlink:title="weekly_project_retrospective&#10;Type: Retros&#10;Category: Retros">
<ellipse fill="darkgreen" stroke="black" cx="548.1" cy="-756.88" rx="61.44" ry="18"/>
<text text-anchor="middle" x="548.1" y="-754.38" font-family="Arial" font-size="10.00" fill="white">weekly_project_re...</text>
</a>
</g>
</g>
<!-- weekly_project_retrospective&#45;&gt;knowledge_graph_implementation -->
<g id="edge12" class="edge">
<title>weekly_project_retrospective&#45;&gt;knowledge_graph_implementation</title>
<g id="a_edge12"><a xlink:title="weekly_project_retrospective reflects_on knowledge_graph_implementation">
<path fill="none" stroke="teal" d="M538.86,-739.02C508.55,-680.44 412.03,-493.93 375.7,-423.71"/>
<polygon fill="teal" stroke="teal" points="370.99,-414.6 379.58,-421.41 373.28,-419.04 375.58,-423.48 375.58,-423.48 375.58,-423.48 373.28,-419.04 371.58,-425.55 370.99,-414.6 370.99,-414.6"/>
</a>
</g>
<text text-anchor="middle" x="434.78" y="-579.13" font-family="Arial" font-size="8.00">reflects_on</text>
</g>
<!-- legend_categories -->
<g id="node14" class="node">
<title>legend_categories</title>
<polygon fill="lightgrey" stroke="transparent" points="429.02,-844.13 320.02,-844.13 320.02,-639.13 429.02,-639.13 429.02,-844.13"/>
<polygon fill="white" stroke="transparent" points="328.02,-643.13 328.02,-840.13 421.02,-840.13 421.02,-643.13 328.02,-643.13"/>
<text text-anchor="start" x="331.52" y="-829.63" font-family="Arial" font-weight="bold" font-size="10.00">TELOS Categories</text>
<polygon fill="red" stroke="transparent" points="329.52,-808.63 329.52,-823.63 344.52,-823.63 344.52,-808.63 329.52,-808.63"/>
<text text-anchor="start" x="332.02" y="-813.63" font-family="Arial" font-size="10.00"> &#160;&#160;</text>
<text text-anchor="start" x="346.52" y="-813.63" font-family="Arial" font-size="10.00">Identity</text>
<polygon fill="teal" stroke="transparent" points="329.52,-793.63 329.52,-808.63 344.52,-808.63 344.52,-793.63 329.52,-793.63"/>
<text text-anchor="start" x="332.02" y="-798.63" font-family="Arial" font-size="10.00"> &#160;&#160;</text>
<text text-anchor="start" x="346.52" y="-798.63" font-family="Arial" font-size="10.00">Projects</text>
<polygon fill="darkslategray" stroke="transparent" points="329.52,-778.63 329.52,-793.63 344.52,-793.63 344.52,-778.63 329.52,-778.63"/>
<text text-anchor="start" x="332.02" y="-783.63" font-family="Arial" font-size="10.00"> &#160;&#160;</text>
<text text-anchor="start" x="346.52" y="-783.63" font-family="Arial" font-size="10.00">Habits</text>
<polygon fill="green" stroke="transparent" points="329.52,-763.63 329.52,-778.63 344.52,-778.63 344.52,-763.63 329.52,-763.63"/>
<text text-anchor="start" x="332.02" y="-768.63" font-family="Arial" font-size="10.00"> &#160;&#160;</text>
<text text-anchor="start" x="346.52" y="-768.63" font-family="Arial" font-size="10.00">Resources</text>
<polygon fill="darkorange" stroke="transparent" points="329.52,-748.63 329.52,-763.63 344.52,-763.63 344.52,-748.63 329.52,-748.63"/>
<text text-anchor="start" x="332.02" y="-753.63" font-family="Arial" font-size="10.00"> &#160;&#160;</text>
<text text-anchor="start" x="346.52" y="-753.63" font-family="Arial" font-size="10.00">Objectives</text>
<polygon fill="orange" stroke="transparent" points="329.52,-733.63 329.52,-748.63 344.52,-748.63 344.52,-733.63 329.52,-733.63"/>
<text text-anchor="start" x="332.02" y="-738.63" font-family="Arial" font-size="10.00"> &#160;&#160;</text>
<text text-anchor="start" x="346.52" y="-738.63" font-family="Arial" font-size="10.00">Context</text>
<polygon fill="purple" stroke="transparent" points="329.52,-718.63 329.52,-733.63 344.52,-733.63 344.52,-718.63 329.52,-718.63"/>
<text text-anchor="start" x="332.02" y="-723.63" font-family="Arial" font-size="10.00"> &#160;&#160;</text>
<text text-anchor="start" x="346.52" y="-723.63" font-family="Arial" font-size="10.00">Conventions</text>
<polygon fill="blue" stroke="transparent" points="329.52,-703.63 329.52,-718.63 344.52,-718.63 344.52,-703.63 329.52,-703.63"/>
<text text-anchor="start" x="332.02" y="-708.63" font-family="Arial" font-size="10.00"> &#160;&#160;</text>
<text text-anchor="start" x="346.52" y="-708.63" font-family="Arial" font-size="10.00">Memory</text>
<polygon fill="darkred" stroke="transparent" points="329.52,-688.63 329.52,-703.63 344.52,-703.63 344.52,-688.63 329.52,-688.63"/>
<text text-anchor="start" x="332.02" y="-693.63" font-family="Arial" font-size="10.00"> &#160;&#160;</text>
<text text-anchor="start" x="346.52" y="-693.63" font-family="Arial" font-size="10.00">Risks</text>
<polygon fill="indigo" stroke="transparent" points="329.52,-673.63 329.52,-688.63 344.52,-688.63 344.52,-673.63 329.52,-673.63"/>
<text text-anchor="start" x="332.02" y="-678.63" font-family="Arial" font-size="10.00"> &#160;&#160;</text>
<text text-anchor="start" x="346.52" y="-678.63" font-family="Arial" font-size="10.00">DecisionJournal</text>
<polygon fill="darkcyan" stroke="transparent" points="329.52,-658.63 329.52,-673.63 344.52,-673.63 344.52,-658.63 329.52,-658.63"/>
<text text-anchor="start" x="332.02" y="-663.63" font-family="Arial" font-size="10.00"> &#160;&#160;</text>
<text text-anchor="start" x="346.52" y="-663.63" font-family="Arial" font-size="10.00">Relationships</text>
<polygon fill="darkgreen" stroke="transparent" points="329.52,-643.63 329.52,-658.63 344.52,-658.63 344.52,-643.63 329.52,-643.63"/>
<text text-anchor="start" x="332.02" y="-648.63" font-family="Arial" font-size="10.00"> &#160;&#160;</text>
<text text-anchor="start" x="346.52" y="-648.63" font-family="Arial" font-size="10.00">Retros</text>
<polygon fill="none" stroke="black" points="328.02,-643.13 328.02,-840.13 421.02,-840.13 421.02,-643.13 328.02,-643.13"/>
</g>
<!-- legend_relations -->
<g id="node15" class="node">
<title>legend_relations</title>
<polygon fill="lightgrey" stroke="transparent" points="493.52,-329.63 399.52,-329.63 399.52,-199.63 493.52,-199.63 493.52,-329.63"/>
<polygon fill="white" stroke="transparent" points="407.52,-203.63 407.52,-325.63 485.52,-325.63 485.52,-203.63 407.52,-203.63"/>
<text text-anchor="start" x="414.02" y="-315.63" font-family="Arial" font-weight="bold" font-size="10.00">Relationships</text>
<text text-anchor="start" x="410.52" y="-299.63" font-family="Arial" font-size="10.00" fill="green">━━━</text>
<text text-anchor="start" x="433.52" y="-299.63" font-family="Arial" font-size="10.00">supports</text>
<text text-anchor="start" x="410.52" y="-284.63" font-family="Arial" font-size="10.00" fill="blue">━━━</text>
<text text-anchor="start" x="433.52" y="-284.63" font-family="Arial" font-size="10.00">enables</text>
<text text-anchor="start" x="410.52" y="-269.63" font-family="Arial" font-size="10.00" fill="red">━━━</text>
<text text-anchor="start" x="433.52" y="-269.63" font-family="Arial" font-size="10.00">constrains</text>
<text text-anchor="start" x="410.52" y="-254.63" font-family="Arial" font-size="10.00" fill="purple">━━━</text>
<text text-anchor="start" x="433.52" y="-254.63" font-family="Arial" font-size="10.00">mentors</text>
<text text-anchor="start" x="410.52" y="-239.63" font-family="Arial" font-size="10.00" fill="orange">━━━</text>
<text text-anchor="start" x="433.52" y="-239.63" font-family="Arial" font-size="10.00">informs</text>
<text text-anchor="start" x="410.52" y="-224.63" font-family="Arial" font-size="10.00" fill="teal">━━━</text>
<text text-anchor="start" x="433.52" y="-224.63" font-family="Arial" font-size="10.00">reflects_on</text>
<text text-anchor="start" x="410.52" y="-209.63" font-family="Arial" font-size="10.00" fill="darkred">━━━</text>
<text text-anchor="start" x="433.52" y="-209.63" font-family="Arial" font-size="10.00">threatens</text>
<polygon fill="none" stroke="black" points="407.52,-203.63 407.52,-325.63 485.52,-325.63 485.52,-203.63 407.52,-203.63"/>
</g>
</g>
</svg>
