<?xml version="1.0" encoding="UTF-8" standalone="no"?>
<!DOCTYPE svg PUBLIC "-//W3C//DTD SVG 1.1//EN"
 "http://www.w3.org/Graphics/SVG/1.1/DTD/svg11.dtd">
<!-- Generated by graphviz version 2.43.0 (0)
 -->
<!-- Title: KnowledgeGraph Pages: 1 -->
<svg width="826pt" height="641pt"
 viewBox="0.00 0.00 826.00 641.00" xmlns="http://www.w3.org/2000/svg" xmlns:xlink="http://www.w3.org/1999/xlink">
<g id="graph0" class="graph" transform="scale(1 1) rotate(0) translate(4 637)">
<title>KnowledgeGraph</title>
<polygon fill="white" stroke="transparent" points="-4,4 -4,-637 822,-637 822,4 -4,4"/>
<text text-anchor="middle" x="409" y="-617.8" font-family="Arial Bold" font-size="14.00">MCP Knowledge Graph</text>
<text text-anchor="middle" x="409" y="-602.8" font-family="Arial Bold" font-size="14.00">TELOS Categories &amp; Relationships</text>
<g id="clust1" class="cluster">
<title>cluster_0</title>
<path fill="#000000" stroke="black" d="M252,-300C252,-300 310.41,-300 310.41,-300 316.41,-300 322.41,-306 322.41,-312 322.41,-312 322.41,-324 322.41,-324 322.41,-330 316.41,-336 310.41,-336 310.41,-336 252,-336 252,-336 246,-336 240,-330 240,-324 240,-324 240,-312 240,-312 240,-306 246,-300 252,-300"/>
<text text-anchor="middle" x="281.21" y="-320.8" font-family="Arial Bold" font-size="14.00" fill="red">Identity</text>
</g>
<g id="clust2" class="cluster">
<title>cluster_1</title>
<path fill="#000000" stroke="black" d="M312,-90C312,-90 621.96,-90 621.96,-90 627.96,-90 633.96,-96 633.96,-102 633.96,-102 633.96,-201.16 633.96,-201.16 633.96,-207.16 627.96,-213.16 621.96,-213.16 621.96,-213.16 312,-213.16 312,-213.16 306,-213.16 300,-207.16 300,-201.16 300,-201.16 300,-102 300,-102 300,-96 306,-90 312,-90"/>
<text text-anchor="middle" x="466.98" y="-197.96" font-family="Arial Bold" font-size="14.00" fill="teal">Projects</text>
</g>
<g id="clust3" class="cluster">
<title>cluster_2</title>
<path fill="#000000" stroke="black" d="M343.65,-167.73C343.65,-167.73 432.67,-167.73 432.67,-167.73 438.67,-167.73 444.67,-173.73 444.67,-179.73 444.67,-179.73 444.67,-191.73 444.67,-191.73 444.67,-197.73 438.67,-203.73 432.67,-203.73 432.67,-203.73 343.65,-203.73 343.65,-203.73 337.65,-203.73 331.65,-197.73 331.65,-191.73 331.65,-191.73 331.65,-179.73 331.65,-179.73 331.65,-173.73 337.65,-167.73 343.65,-167.73"/>
<text text-anchor="middle" x="388.16" y="-188.53" font-family="Arial Bold" font-size="14.00" fill="darkslategray">Habits</text>
</g>
<g id="clust4" class="cluster">
<title>cluster_3</title>
<path fill="#000000" stroke="black" d="M456.51,-9.56C456.51,-9.56 558.49,-9.56 558.49,-9.56 564.49,-9.56 570.49,-15.56 570.49,-21.56 570.49,-21.56 570.49,-33.56 570.49,-33.56 570.49,-39.56 564.49,-45.56 558.49,-45.56 558.49,-45.56 456.51,-45.56 456.51,-45.56 450.51,-45.56 444.51,-39.56 444.51,-33.56 444.51,-33.56 444.51,-21.56 444.51,-21.56 444.51,-15.56 450.51,-9.56 456.51,-9.56"/>
<text text-anchor="middle" x="507.5" y="-30.36" font-family="Arial Bold" font-size="14.00" fill="green">Resources</text>
</g>
<g id="clust5" class="cluster">
<title>cluster_4</title>
<path fill="#000000" stroke="black" d="M633.92,-288.75C633.92,-288.75 724.13,-288.75 724.13,-288.75 730.13,-288.75 736.13,-294.75 736.13,-300.75 736.13,-300.75 736.13,-312.75 736.13,-312.75 736.13,-318.75 730.13,-324.75 724.13,-324.75 724.13,-324.75 633.92,-324.75 633.92,-324.75 627.92,-324.75 621.92,-318.75 621.92,-312.75 621.92,-312.75 621.92,-300.75 621.92,-300.75 621.92,-294.75 627.92,-288.75 633.92,-288.75"/>
<text text-anchor="middle" x="679.02" y="-309.55" font-family="Arial Bold" font-size="14.00" fill="darkorange">Objectives</text>
</g>
<g id="clust6" class="cluster">
<title>cluster_5</title>
<path fill="#000000" stroke="black" d="M530.19,-369.44C530.19,-369.44 635.69,-369.44 635.69,-369.44 641.69,-369.44 647.69,-375.44 647.69,-381.44 647.69,-381.44 647.69,-393.44 647.69,-393.44 647.69,-399.44 641.69,-405.44 635.69,-405.44 635.69,-405.44 530.19,-405.44 530.19,-405.44 524.19,-405.44 518.19,-399.44 518.19,-393.44 518.19,-393.44 518.19,-381.44 518.19,-381.44 518.19,-375.44 524.19,-369.44 530.19,-369.44"/>
<text text-anchor="middle" x="582.94" y="-390.24" font-family="Arial Bold" font-size="14.00" fill="orange">Context</text>
</g>
<g id="clust7" class="cluster">
<title>cluster_6</title>
<path fill="#000000" stroke="black" d="M388.26,-287.87C388.26,-287.87 493.77,-287.87 493.77,-287.87 499.77,-287.87 505.77,-293.87 505.77,-299.87 505.77,-299.87 505.77,-311.87 505.77,-311.87 505.77,-317.87 499.77,-323.87 493.77,-323.87 493.77,-323.87 388.26,-323.87 388.26,-323.87 382.26,-323.87 376.26,-317.87 376.26,-311.87 376.26,-311.87 376.26,-299.87 376.26,-299.87 376.26,-293.87 382.26,-287.87 388.26,-287.87"/>
<text text-anchor="middle" x="441.01" y="-308.67" font-family="Arial Bold" font-size="14.00" fill="purple">Conventions</text>
</g>
<g id="clust8" class="cluster">
<title>cluster_7</title>
<path fill="#000000" stroke="black" d="M12,-132.51C12,-132.51 116.33,-132.51 116.33,-132.51 122.33,-132.51 128.33,-138.51 128.33,-144.51 128.33,-144.51 128.33,-156.51 128.33,-156.51 128.33,-162.51 122.33,-168.51 116.33,-168.51 116.33,-168.51 12,-168.51 12,-168.51 6,-168.51 0,-162.51 0,-156.51 0,-156.51 0,-144.51 0,-144.51 0,-138.51 6,-132.51 12,-132.51"/>
<text text-anchor="middle" x="64.16" y="-153.31" font-family="Arial Bold" font-size="14.00" fill="blue">Memory</text>
</g>
<g id="clust9" class="cluster">
<title>cluster_8</title>
<path fill="#000000" stroke="black" d="M720.51,-222.99C720.51,-222.99 806,-222.99 806,-222.99 812,-222.99 818,-228.99 818,-234.99 818,-234.99 818,-246.99 818,-246.99 818,-252.99 812,-258.99 806,-258.99 806,-258.99 720.51,-258.99 720.51,-258.99 714.51,-258.99 708.51,-252.99 708.51,-246.99 708.51,-246.99 708.51,-234.99 708.51,-234.99 708.51,-228.99 714.51,-222.99 720.51,-222.99"/>
<text text-anchor="middle" x="763.26" y="-243.79" font-family="Arial Bold" font-size="14.00" fill="darkred">Risks</text>
</g>
<g id="clust10" class="cluster">
<title>cluster_9</title>
<path fill="#000000" stroke="black" d="M165.71,-162.96C165.71,-162.96 274.75,-162.96 274.75,-162.96 280.75,-162.96 286.75,-168.96 286.75,-174.96 286.75,-174.96 286.75,-186.96 286.75,-186.96 286.75,-192.96 280.75,-198.96 274.75,-198.96 274.75,-198.96 165.71,-198.96 165.71,-198.96 159.71,-198.96 153.71,-192.96 153.71,-186.96 153.71,-186.96 153.71,-174.96 153.71,-174.96 153.71,-168.96 159.71,-162.96 165.71,-162.96"/>
<text text-anchor="middle" x="220.23" y="-183.76" font-family="Arial Bold" font-size="14.00" fill="indigo">DecisionJournal</text>
</g>
<g id="clust11" class="cluster">
<title>cluster_10</title>
<path fill="#000000" stroke="black" d="M664.9,-128.52C664.9,-128.52 773.94,-128.52 773.94,-128.52 779.94,-128.52 785.94,-134.52 785.94,-140.52 785.94,-140.52 785.94,-152.52 785.94,-152.52 785.94,-158.52 779.94,-164.52 773.94,-164.52 773.94,-164.52 664.9,-164.52 664.9,-164.52 658.9,-164.52 652.9,-158.52 652.9,-152.52 652.9,-152.52 652.9,-140.52 652.9,-140.52 652.9,-134.52 658.9,-128.52 664.9,-128.52"/>
<text text-anchor="middle" x="719.42" y="-149.32" font-family="Arial Bold" font-size="14.00" fill="darkcyan">Relationships</text>
</g>
<g id="clust12" class="cluster">
<title>cluster_11</title>
<path fill="#000000" stroke="black" d="M590.5,0C590.5,0 688.94,0 688.94,0 694.94,0 700.94,-6 700.94,-12 700.94,-12 700.94,-24 700.94,-24 700.94,-30 694.94,-36 688.94,-36 688.94,-36 590.5,-36 590.5,-36 584.5,-36 578.5,-30 578.5,-24 578.5,-24 578.5,-12 578.5,-12 578.5,-6 584.5,0 590.5,0"/>
<text text-anchor="middle" x="639.72" y="-20.8" font-family="Arial Bold" font-size="14.00" fill="darkgreen">Retros</text>
</g>
<g id="clust13" class="cluster">
<title>cluster_legend</title>
<path fill="lightyellow" stroke="black" d="M252,-390C252,-390 487,-390 487,-390 493,-390 499,-396 499,-402 499,-402 499,-583 499,-583 499,-589 493,-595 487,-595 487,-595 252,-595 252,-595 246,-595 240,-589 240,-583 240,-583 240,-402 240,-402 240,-396 246,-390 252,-390"/>
<text text-anchor="middle" x="369.5" y="-579.8" font-family="Arial Bold" font-size="14.00">Legend</text>
</g>
<!-- default_user -->
<g id="node1" class="node">
<title>default_user</title>
<g id="a_node1"><a xlink:title="default_user&#10;Type: Identity&#10;Category: Identity">
<ellipse fill="red" stroke="black" cx="281.21" cy="-318" rx="41.41" ry="18"/>
<text text-anchor="middle" x="281.21" y="-315.5" font-family="Arial" font-size="10.00" fill="white">default_user</text>
</a>
</g>
</g>
<!-- knowledge_graph_implementation -->
<g id="node2" class="node">
<title>knowledge_graph_implementation</title>
<g id="a_node2"><a xlink:title="knowledge_graph_implementation&#10;Type: Projects&#10;Category: Projects">
<ellipse fill="teal" stroke="black" cx="569.79" cy="-195.16" rx="64.33" ry="18"/>
<text text-anchor="middle" x="569.79" y="-192.66" font-family="Arial" font-size="10.00" fill="white">knowledge_graph_i...</text>
</a>
</g>
</g>
<!-- productivity_optimization_goal -->
<g id="node6" class="node">
<title>productivity_optimization_goal</title>
<g id="a_node6"><a xlink:title="productivity_optimization_goal&#10;Type: Objectives&#10;Category: Objectives">
<ellipse fill="darkorange" stroke="black" cx="679.02" cy="-306.75" rx="57.2" ry="18"/>
<text text-anchor="middle" x="679.02" y="-304.25" font-family="Arial" font-size="10.00" fill="white">productivity_opti...</text>
</a>
</g>
</g>
<!-- knowledge_graph_implementation&#45;&gt;productivity_optimization_goal -->
<g id="edge2" class="edge">
<title>knowledge_graph_implementation&#45;&gt;productivity_optimization_goal</title>
<g id="a_edge2"><a xlink:title="knowledge_graph_implementation supports productivity_optimization_goal">
<path fill="none" stroke="green" d="M586.86,-212.6C605.14,-231.27 634.29,-261.05 654.9,-282.11"/>
<polygon fill="green" stroke="green" points="652.58,-284.74 662.08,-289.44 657.58,-279.84 652.58,-284.74"/>
</a>
</g>
<text text-anchor="middle" x="608.78" y="-253.43" font-family="Arial" font-size="8.00">supports</text>
</g>
<!-- Ubuntu_MATE_Setup -->
<g id="node3" class="node">
<title>Ubuntu_MATE_Setup</title>
<g id="a_node3"><a xlink:title="Ubuntu MATE Setup&#10;Type: Project&#10;Category: Projects">
<ellipse fill="teal" stroke="black" cx="362.99" cy="-108" rx="62.97" ry="18"/>
<text text-anchor="middle" x="362.99" y="-105.5" font-family="Arial" font-size="10.00" fill="white">Ubuntu MATE Setup</text>
</a>
</g>
</g>
<!-- daily_reflection_habit -->
<g id="node4" class="node">
<title>daily_reflection_habit</title>
<g id="a_node4"><a xlink:title="daily_reflection_habit&#10;Type: Habits&#10;Category: Habits">
<ellipse fill="darkslategray" stroke="black" cx="388.16" cy="-185.73" rx="56.52" ry="18"/>
<text text-anchor="middle" x="388.16" y="-183.23" font-family="Arial" font-size="10.00" fill="white">daily_reflection_...</text>
</a>
</g>
</g>
<!-- daily_reflection_habit&#45;&gt;knowledge_graph_implementation -->
<g id="edge1" class="edge">
<title>daily_reflection_habit&#45;&gt;knowledge_graph_implementation</title>
<g id="a_edge1"><a xlink:title="daily_reflection_habit supports knowledge_graph_implementation">
<path fill="none" stroke="green" d="M444.14,-188.64C460.61,-189.49 478.87,-190.44 496.27,-191.34"/>
<polygon fill="green" stroke="green" points="496.22,-194.85 506.38,-191.87 496.58,-187.86 496.22,-194.85"/>
</a>
</g>
<text text-anchor="middle" x="459.73" y="-183.85" font-family="Arial" font-size="8.00">supports</text>
</g>
<!-- claude_mcp_integration -->
<g id="node5" class="node">
<title>claude_mcp_integration</title>
<g id="a_node5"><a xlink:title="claude_mcp_integration&#10;Type: Resources&#10;Category: Resources">
<ellipse fill="green" stroke="black" cx="507.5" cy="-27.56" rx="62.97" ry="18"/>
<text text-anchor="middle" x="507.5" y="-25.06" font-family="Arial" font-size="10.00" fill="white">claude_mcp_integr...</text>
</a>
</g>
</g>
<!-- claude_mcp_integration&#45;&gt;knowledge_graph_implementation -->
<g id="edge4" class="edge">
<title>claude_mcp_integration&#45;&gt;knowledge_graph_implementation</title>
<g id="a_edge4"><a xlink:title="claude_mcp_integration enables knowledge_graph_implementation">
<path fill="none" stroke="blue" d="M514.17,-45.49C525.05,-74.78 546.71,-133.05 559.55,-167.61"/>
<polygon fill="blue" stroke="blue" points="556.32,-168.95 563.08,-177.1 562.88,-166.51 556.32,-168.95"/>
</a>
</g>
<text text-anchor="middle" x="524.68" y="-114.06" font-family="Arial" font-size="8.00">enables</text>
</g>
<!-- remote_work_context -->
<g id="node7" class="node">
<title>remote_work_context</title>
<g id="a_node7"><a xlink:title="remote_work_context&#10;Type: Context&#10;Category: Context">
<ellipse fill="orange" stroke="black" cx="582.94" cy="-387.44" rx="64.51" ry="18"/>
<text text-anchor="middle" x="582.94" y="-384.94" font-family="Arial" font-size="10.00" fill="white">remote_work_context</text>
</a>
</g>
</g>
<!-- remote_work_context&#45;&gt;knowledge_graph_implementation -->
<g id="edge6" class="edge">
<title>remote_work_context&#45;&gt;knowledge_graph_implementation</title>
<g id="a_edge6"><a xlink:title="remote_work_context constrains knowledge_graph_implementation">
<path fill="none" stroke="red" stroke-dasharray="5,2" d="M581.7,-369.35C579.41,-335.78 574.47,-263.62 571.73,-223.51"/>
<polygon fill="red" stroke="red" points="575.21,-223.08 571.04,-213.34 568.23,-223.56 575.21,-223.08"/>
</a>
</g>
<text text-anchor="middle" x="557.88" y="-294.13" font-family="Arial" font-size="8.00">constrains</text>
</g>
<!-- remote_work_context&#45;&gt;productivity_optimization_goal -->
<g id="edge5" class="edge">
<title>remote_work_context&#45;&gt;productivity_optimization_goal</title>
<g id="a_edge5"><a xlink:title="remote_work_context enables productivity_optimization_goal">
<path fill="none" stroke="blue" d="M611.53,-371.25C626.7,-359.86 644.93,-344.53 658.66,-331.62"/>
<polygon fill="blue" stroke="blue" points="661.42,-333.82 666.16,-324.35 656.54,-328.8 661.42,-333.82"/>
</a>
</g>
<text text-anchor="middle" x="625.45" y="-351.37" font-family="Arial" font-size="8.00">enables</text>
</g>
<!-- remote_work_context&#45;&gt;productivity_optimization_goal -->
<g id="edge11" class="edge">
<title>remote_work_context&#45;&gt;productivity_optimization_goal</title>
<g id="a_edge11"><a xlink:title="remote_work_context informs productivity_optimization_goal">
<path fill="none" stroke="orange" stroke-dasharray="1,5" d="M595.88,-369.76C607.87,-357.74 626.13,-341.88 642.51,-329.03"/>
<polygon fill="orange" stroke="orange" points="645.06,-331.48 650.87,-322.62 640.8,-325.93 645.06,-331.48"/>
</a>
</g>
<text text-anchor="middle" x="609.05" y="-338.99" font-family="Arial" font-size="8.00">informs</text>
</g>
<!-- tdd_development_convention -->
<g id="node8" class="node">
<title>tdd_development_convention</title>
<g id="a_node8"><a xlink:title="tdd_development_convention&#10;Type: Conventions&#10;Category: Conventions">
<ellipse fill="purple" stroke="black" cx="441.01" cy="-305.87" rx="64.51" ry="18"/>
<text text-anchor="middle" x="441.01" y="-303.37" font-family="Arial" font-size="10.00" fill="white">tdd_development_c...</text>
</a>
</g>
</g>
<!-- tdd_development_convention&#45;&gt;knowledge_graph_implementation -->
<g id="edge3" class="edge">
<title>tdd_development_convention&#45;&gt;knowledge_graph_implementation</title>
<g id="a_edge3"><a xlink:title="tdd_development_convention supports knowledge_graph_implementation">
<path fill="none" stroke="green" d="M461.13,-288.57C482.87,-269.89 517.65,-239.99 541.99,-219.06"/>
<polygon fill="green" stroke="green" points="544.51,-221.51 549.81,-212.34 539.95,-216.2 544.51,-221.51"/>
</a>
</g>
<text text-anchor="middle" x="489.84" y="-253.17" font-family="Arial" font-size="8.00">supports</text>
</g>
<!-- tdd_development_convention&#45;&gt;daily_reflection_habit -->
<g id="edge7" class="edge">
<title>tdd_development_convention&#45;&gt;daily_reflection_habit</title>
<g id="a_edge7"><a xlink:title="tdd_development_convention constrains daily_reflection_habit">
<path fill="none" stroke="red" stroke-dasharray="5,2" d="M433.1,-287.88C424.38,-268.07 410.26,-235.97 400.17,-213.04"/>
<polygon fill="red" stroke="red" points="403.36,-211.59 396.13,-203.84 396.95,-214.4 403.36,-211.59"/>
</a>
</g>
<text text-anchor="middle" x="396.16" y="-248.57" font-family="Arial" font-size="8.00">constrains</text>
</g>
<!-- ai_knowledge_systems_learning -->
<g id="node9" class="node">
<title>ai_knowledge_systems_learning</title>
<g id="a_node9"><a xlink:title="ai_knowledge_systems_learning&#10;Type: Memory&#10;Category: Memory">
<ellipse fill="blue" stroke="black" cx="64.16" cy="-150.51" rx="64.33" ry="18"/>
<text text-anchor="middle" x="64.16" y="-148.01" font-family="Arial" font-size="10.00" fill="white">ai_knowledge_syst...</text>
</a>
</g>
</g>
<!-- taxonomy_design_decision -->
<g id="node11" class="node">
<title>taxonomy_design_decision</title>
<g id="a_node11"><a xlink:title="taxonomy_design_decision&#10;Type: DecisionJournal&#10;Category: DecisionJournal">
<ellipse fill="indigo" stroke="black" cx="220.23" cy="-180.96" rx="66.54" ry="18"/>
<text text-anchor="middle" x="220.23" y="-178.46" font-family="Arial" font-size="10.00" fill="white">taxonomy_design_d...</text>
</a>
</g>
</g>
<!-- ai_knowledge_systems_learning&#45;&gt;taxonomy_design_decision -->
<g id="edge10" class="edge">
<title>ai_knowledge_systems_learning&#45;&gt;taxonomy_design_decision</title>
<g id="a_edge10"><a xlink:title="ai_knowledge_systems_learning informs taxonomy_design_decision">
<path fill="none" stroke="orange" stroke-dasharray="1,5" d="M117,-160.82C129.61,-163.28 143.21,-165.93 156.27,-168.48"/>
<polygon fill="orange" stroke="orange" points="155.63,-171.92 166.12,-170.4 156.97,-165.05 155.63,-171.92"/>
</a>
</g>
<text text-anchor="middle" x="141.74" y="-159.24" font-family="Arial" font-size="8.00">informs</text>
</g>
<!-- scope_creep_risk -->
<g id="node10" class="node">
<title>scope_creep_risk</title>
<g id="a_node10"><a xlink:title="scope_creep_risk&#10;Type: Risks&#10;Category: Risks">
<ellipse fill="darkred" stroke="black" cx="763.26" cy="-240.99" rx="54.99" ry="18"/>
<text text-anchor="middle" x="763.26" y="-238.49" font-family="Arial" font-size="10.00" fill="white">scope_creep_risk</text>
</a>
</g>
</g>
<!-- scope_creep_risk&#45;&gt;knowledge_graph_implementation -->
<g id="edge14" class="edge">
<title>scope_creep_risk&#45;&gt;knowledge_graph_implementation</title>
<g id="a_edge14"><a xlink:title="scope_creep_risk threatens knowledge_graph_implementation">
<path fill="none" stroke="darkred" stroke-width="2" d="M718.39,-230.36C690.21,-223.69 653.7,-215.04 623.93,-207.99"/>
<polygon fill="darkred" stroke="darkred" stroke-width="2" points="618.65,-211.87 620.96,-202.14 622.9,-202.6 620.6,-212.33 618.65,-211.87"/>
<polyline fill="none" stroke="darkred" stroke-width="2" points="618.83,-206.78 623.7,-207.93 "/>
</a>
</g>
<text text-anchor="middle" x="651.3" y="-221.1" font-family="Arial" font-size="8.00">threatens</text>
</g>
<!-- scope_creep_risk&#45;&gt;productivity_optimization_goal -->
<g id="edge15" class="edge">
<title>scope_creep_risk&#45;&gt;productivity_optimization_goal</title>
<g id="a_edge15"><a xlink:title="scope_creep_risk threatens productivity_optimization_goal">
<path fill="none" stroke="darkred" stroke-width="2" d="M742,-257.58C730.62,-266.47 716.51,-277.48 704.54,-286.83"/>
<polygon fill="darkred" stroke="darkred" stroke-width="2" points="704.43,-293.26 698.28,-285.38 699.85,-284.15 706.01,-292.03 704.43,-293.26"/>
<polyline fill="none" stroke="darkred" stroke-width="2" points="700.57,-289.93 704.51,-286.86 "/>
</a>
</g>
<text text-anchor="middle" x="704.37" y="-276.29" font-family="Arial" font-size="8.00">threatens</text>
</g>
<!-- taxonomy_design_decision&#45;&gt;daily_reflection_habit -->
<g id="edge13" class="edge">
<title>taxonomy_design_decision&#45;&gt;daily_reflection_habit</title>
<g id="a_edge13"><a xlink:title="taxonomy_design_decision reflects_on daily_reflection_habit">
<path fill="none" stroke="teal" d="M286.6,-182.85C298.16,-183.17 310.18,-183.52 321.74,-183.84"/>
<polygon fill="teal" stroke="teal" points="331.75,-184.13 321.63,-188.34 326.76,-183.99 321.76,-183.85 321.76,-183.85 321.76,-183.85 326.76,-183.99 321.89,-179.35 331.75,-184.13 331.75,-184.13"/>
</a>
</g>
<text text-anchor="middle" x="309.14" y="-177.09" font-family="Arial" font-size="8.00">reflects_on</text>
</g>
<!-- development_team_relationship -->
<g id="node12" class="node">
<title>development_team_relationship</title>
<g id="a_node12"><a xlink:title="development_team_relationship&#10;Type: Relationships&#10;Category: Relationships">
<ellipse fill="darkcyan" stroke="black" cx="719.42" cy="-146.52" rx="66.54" ry="18"/>
<text text-anchor="middle" x="719.42" y="-144.02" font-family="Arial" font-size="10.00" fill="white">development_team_...</text>
</a>
</g>
</g>
<!-- development_team_relationship&#45;&gt;knowledge_graph_implementation -->
<g id="edge8" class="edge">
<title>development_team_relationship&#45;&gt;knowledge_graph_implementation</title>
<g id="a_edge8"><a xlink:title="development_team_relationship mentors knowledge_graph_implementation">
<path fill="none" stroke="purple" d="M676.54,-160.46C659.97,-165.85 640.83,-172.07 623.37,-177.74"/>
<polygon fill="purple" stroke="purple" points="623.31,-177.76 618.84,-183.42 611.9,-181.47 616.37,-175.81 623.31,-177.76"/>
</a>
</g>
<text text-anchor="middle" x="629.35" y="-164.52" font-family="Arial" font-size="8.00">mentors</text>
</g>
<!-- development_team_relationship&#45;&gt;productivity_optimization_goal -->
<g id="edge9" class="edge">
<title>development_team_relationship&#45;&gt;productivity_optimization_goal</title>
<g id="a_edge9"><a xlink:title="development_team_relationship mentors productivity_optimization_goal">
<path fill="none" stroke="purple" d="M714.86,-164.59C708.01,-191.76 694.98,-243.45 686.66,-276.45"/>
<polygon fill="purple" stroke="purple" points="686.56,-276.87 688.97,-283.66 683.63,-288.5 681.21,-281.71 686.56,-276.87"/>
</a>
</g>
<text text-anchor="middle" x="684.25" y="-229.1" font-family="Arial" font-size="8.00">mentors</text>
</g>
<!-- weekly_project_retrospective -->
<g id="node13" class="node">
<title>weekly_project_retrospective</title>
<g id="a_node13"><a xlink:title="weekly_project_retrospective&#10;Type: Retros&#10;Category: Retros">
<ellipse fill="darkgreen" stroke="black" cx="639.72" cy="-18" rx="61.44" ry="18"/>
<text text-anchor="middle" x="639.72" y="-15.5" font-family="Arial" font-size="10.00" fill="white">weekly_project_re...</text>
</a>
</g>
</g>
<!-- weekly_project_retrospective&#45;&gt;knowledge_graph_implementation -->
<g id="edge12" class="edge">
<title>weekly_project_retrospective&#45;&gt;knowledge_graph_implementation</title>
<g id="a_edge12"><a xlink:title="weekly_project_retrospective reflects_on knowledge_graph_implementation">
<path fill="none" stroke="teal" d="M632.63,-35.96C620.38,-67 595.17,-130.86 580.68,-167.57"/>
<polygon fill="teal" stroke="teal" points="576.9,-177.15 576.39,-166.2 578.74,-172.5 580.57,-167.85 580.57,-167.85 580.57,-167.85 578.74,-172.5 584.76,-169.5 576.9,-177.15 576.9,-177.15"/>
</a>
</g>
<text text-anchor="middle" x="584.78" y="-109.12" font-family="Arial" font-size="8.00">reflects_on</text>
</g>
<!-- legend_categories -->
<g id="node14" class="node">
<title>legend_categories</title>
<polygon fill="lightgrey" stroke="transparent" points="499,-595 390,-595 390,-390 499,-390 499,-595"/>
<polygon fill="white" stroke="transparent" points="398,-394 398,-591 491,-591 491,-394 398,-394"/>
<text text-anchor="start" x="401.5" y="-580.5" font-family="Arial" font-weight="bold" font-size="10.00">TELOS Categories</text>
<polygon fill="red" stroke="transparent" points="399.5,-559.5 399.5,-574.5 414.5,-574.5 414.5,-559.5 399.5,-559.5"/>
<text text-anchor="start" x="402" y="-564.5" font-family="Arial" font-size="10.00"> &#160;&#160;</text>
<text text-anchor="start" x="416.5" y="-564.5" font-family="Arial" font-size="10.00">Identity</text>
<polygon fill="teal" stroke="transparent" points="399.5,-544.5 399.5,-559.5 414.5,-559.5 414.5,-544.5 399.5,-544.5"/>
<text text-anchor="start" x="402" y="-549.5" font-family="Arial" font-size="10.00"> &#160;&#160;</text>
<text text-anchor="start" x="416.5" y="-549.5" font-family="Arial" font-size="10.00">Projects</text>
<polygon fill="darkslategray" stroke="transparent" points="399.5,-529.5 399.5,-544.5 414.5,-544.5 414.5,-529.5 399.5,-529.5"/>
<text text-anchor="start" x="402" y="-534.5" font-family="Arial" font-size="10.00"> &#160;&#160;</text>
<text text-anchor="start" x="416.5" y="-534.5" font-family="Arial" font-size="10.00">Habits</text>
<polygon fill="green" stroke="transparent" points="399.5,-514.5 399.5,-529.5 414.5,-529.5 414.5,-514.5 399.5,-514.5"/>
<text text-anchor="start" x="402" y="-519.5" font-family="Arial" font-size="10.00"> &#160;&#160;</text>
<text text-anchor="start" x="416.5" y="-519.5" font-family="Arial" font-size="10.00">Resources</text>
<polygon fill="darkorange" stroke="transparent" points="399.5,-499.5 399.5,-514.5 414.5,-514.5 414.5,-499.5 399.5,-499.5"/>
<text text-anchor="start" x="402" y="-504.5" font-family="Arial" font-size="10.00"> &#160;&#160;</text>
<text text-anchor="start" x="416.5" y="-504.5" font-family="Arial" font-size="10.00">Objectives</text>
<polygon fill="orange" stroke="transparent" points="399.5,-484.5 399.5,-499.5 414.5,-499.5 414.5,-484.5 399.5,-484.5"/>
<text text-anchor="start" x="402" y="-489.5" font-family="Arial" font-size="10.00"> &#160;&#160;</text>
<text text-anchor="start" x="416.5" y="-489.5" font-family="Arial" font-size="10.00">Context</text>
<polygon fill="purple" stroke="transparent" points="399.5,-469.5 399.5,-484.5 414.5,-484.5 414.5,-469.5 399.5,-469.5"/>
<text text-anchor="start" x="402" y="-474.5" font-family="Arial" font-size="10.00"> &#160;&#160;</text>
<text text-anchor="start" x="416.5" y="-474.5" font-family="Arial" font-size="10.00">Conventions</text>
<polygon fill="blue" stroke="transparent" points="399.5,-454.5 399.5,-469.5 414.5,-469.5 414.5,-454.5 399.5,-454.5"/>
<text text-anchor="start" x="402" y="-459.5" font-family="Arial" font-size="10.00"> &#160;&#160;</text>
<text text-anchor="start" x="416.5" y="-459.5" font-family="Arial" font-size="10.00">Memory</text>
<polygon fill="darkred" stroke="transparent" points="399.5,-439.5 399.5,-454.5 414.5,-454.5 414.5,-439.5 399.5,-439.5"/>
<text text-anchor="start" x="402" y="-444.5" font-family="Arial" font-size="10.00"> &#160;&#160;</text>
<text text-anchor="start" x="416.5" y="-444.5" font-family="Arial" font-size="10.00">Risks</text>
<polygon fill="indigo" stroke="transparent" points="399.5,-424.5 399.5,-439.5 414.5,-439.5 414.5,-424.5 399.5,-424.5"/>
<text text-anchor="start" x="402" y="-429.5" font-family="Arial" font-size="10.00"> &#160;&#160;</text>
<text text-anchor="start" x="416.5" y="-429.5" font-family="Arial" font-size="10.00">DecisionJournal</text>
<polygon fill="darkcyan" stroke="transparent" points="399.5,-409.5 399.5,-424.5 414.5,-424.5 414.5,-409.5 399.5,-409.5"/>
<text text-anchor="start" x="402" y="-414.5" font-family="Arial" font-size="10.00"> &#160;&#160;</text>
<text text-anchor="start" x="416.5" y="-414.5" font-family="Arial" font-size="10.00">Relationships</text>
<polygon fill="darkgreen" stroke="transparent" points="399.5,-394.5 399.5,-409.5 414.5,-409.5 414.5,-394.5 399.5,-394.5"/>
<text text-anchor="start" x="402" y="-399.5" font-family="Arial" font-size="10.00"> &#160;&#160;</text>
<text text-anchor="start" x="416.5" y="-399.5" font-family="Arial" font-size="10.00">Retros</text>
<polygon fill="none" stroke="black" points="398,-394 398,-591 491,-591 491,-394 398,-394"/>
</g>
<!-- legend_relations -->
<g id="node15" class="node">
<title>legend_relations</title>
<polygon fill="lightgrey" stroke="transparent" points="334,-520 240,-520 240,-390 334,-390 334,-520"/>
<polygon fill="white" stroke="transparent" points="248,-394 248,-516 326,-516 326,-394 248,-394"/>
<text text-anchor="start" x="254.5" y="-506" font-family="Arial" font-weight="bold" font-size="10.00">Relationships</text>
<text text-anchor="start" x="251" y="-490" font-family="Arial" font-size="10.00" fill="green">━━━</text>
<text text-anchor="start" x="274" y="-490" font-family="Arial" font-size="10.00">supports</text>
<text text-anchor="start" x="251" y="-475" font-family="Arial" font-size="10.00" fill="blue">━━━</text>
<text text-anchor="start" x="274" y="-475" font-family="Arial" font-size="10.00">enables</text>
<text text-anchor="start" x="251" y="-460" font-family="Arial" font-size="10.00" fill="red">━━━</text>
<text text-anchor="start" x="274" y="-460" font-family="Arial" font-size="10.00">constrains</text>
<text text-anchor="start" x="251" y="-445" font-family="Arial" font-size="10.00" fill="purple">━━━</text>
<text text-anchor="start" x="274" y="-445" font-family="Arial" font-size="10.00">mentors</text>
<text text-anchor="start" x="251" y="-430" font-family="Arial" font-size="10.00" fill="orange">━━━</text>
<text text-anchor="start" x="274" y="-430" font-family="Arial" font-size="10.00">informs</text>
<text text-anchor="start" x="251" y="-415" font-family="Arial" font-size="10.00" fill="teal">━━━</text>
<text text-anchor="start" x="274" y="-415" font-family="Arial" font-size="10.00">reflects_on</text>
<text text-anchor="start" x="251" y="-400" font-family="Arial" font-size="10.00" fill="darkred">━━━</text>
<text text-anchor="start" x="274" y="-400" font-family="Arial" font-size="10.00">threatens</text>
<polygon fill="none" stroke="black" points="248,-394 248,-516 326,-516 326,-394 248,-394"/>
</g>
</g>
</svg>
